<svg width="12" height="13" viewBox="0 0 12 13" fill="none" xmlns="http://www.w3.org/2000/svg">
<path d="M11.3999 6.37655H6.60002V1.57652C6.60002 1.2454 6.33118 0.976562 5.99994 0.976562C5.66882 0.976562 5.39998 1.2454 5.39998 1.57652V6.37655H0.599962C0.268835 6.37655 0 6.64538 0 6.97651C0 7.30774 0.268835 7.57658 0.599962 7.57658H5.39998V12.3765C5.39998 12.7077 5.66882 12.9766 5.99994 12.9766C6.33118 12.9766 6.60002 12.7077 6.60002 12.3765V7.57658H11.3999C11.7312 7.57658 12 7.30774 12 6.97651C12 6.64538 11.7312 6.37655 11.3999 6.37655V6.37655Z" fill="white"/>
</svg>
