<svg width="92" height="99" viewBox="0 0 92 99" fill="none" xmlns="http://www.w3.org/2000/svg">
<path fill-rule="evenodd" clip-rule="evenodd" d="M59.9577 49.832L42.1699 67.6181C42.1699 67.6181 48.4955 65.6426 57.5864 68.8037C59.1158 69.3353 61.6749 66.7763 61.1433 65.2468C57.9822 56.1559 59.9577 49.832 59.9577 49.832Z" fill="#A8C0C2"/>
<path fill-rule="evenodd" clip-rule="evenodd" d="M12.3564 20.0165C23.1561 9.21845 40.689 9.21845 51.4888 20.0165C62.2868 30.8163 62.2868 48.3491 51.4888 59.1489C40.689 69.947 23.1561 69.947 12.3564 59.1489C1.55829 48.3491 1.55829 30.8163 12.3564 20.0165Z" fill="#F6F6F7"/>
<path fill-rule="evenodd" clip-rule="evenodd" d="M47.9081 16.9922C49.1624 17.8827 50.3598 18.8905 51.4851 20.0141C62.2832 30.8139 62.2832 48.3467 51.4851 59.1465C40.6853 69.9446 23.1525 69.9446 12.3527 59.1465C11.7171 58.5092 11.1184 57.8502 10.5566 57.171C21.0244 60.5719 32.988 58.1168 41.2991 49.8057C50.1636 40.9412 52.3672 27.9211 47.9081 16.9922Z" fill="#EFEFEF"/>
<path fill-rule="evenodd" clip-rule="evenodd" d="M9.9832 17.6355C22.091 5.52773 41.7503 5.52773 53.8581 17.6355C65.9659 29.7434 65.9659 49.4026 53.8581 61.5104C41.7503 73.6182 22.091 73.6182 9.9832 61.5104C-2.12461 49.4026 -2.12461 29.7434 9.9832 17.6355ZM13.5401 21.1924C23.6841 11.0484 40.1571 11.0484 50.3012 21.1924C60.4453 31.3365 60.4453 47.8095 50.3012 57.9535C40.1571 68.0976 23.6841 68.0976 13.5401 57.9535C3.39602 47.8095 3.39602 31.3365 13.5401 21.1924Z" fill="#DBDBDB"/>
<path fill-rule="evenodd" clip-rule="evenodd" d="M4.12558 53.3798C-1.62982 41.7768 0.322187 27.3078 9.98328 17.6467C19.0558 8.57424 32.3676 6.30025 43.5682 10.8247C43.6487 11.8527 43.6906 12.8941 43.6906 13.9456C43.6906 14.7573 43.6655 15.5639 43.6168 16.3655C33.8719 11.4586 21.6735 13.0719 13.5402 21.2036C4.9188 29.825 3.62417 43.0178 9.65962 53.0126C7.89208 53.2541 6.08765 53.3798 4.25639 53.3798H4.12558Z" fill="#DBDBDB"/>
<path fill-rule="evenodd" clip-rule="evenodd" d="M56.2333 74.554C53.2868 71.6076 53.2868 66.8299 56.2333 63.8817C59.1797 60.9353 63.9591 60.9353 66.9056 63.8817L91.2151 88.1913C91.8692 88.8453 90.0094 91.7683 87.0646 94.713C84.1198 97.6578 81.1968 99.5176 80.5428 98.8636L56.2333 74.554Z" fill="#DBDBDB"/>
<path fill-rule="evenodd" clip-rule="evenodd" d="M56.2333 74.554C53.2868 71.6076 53.2868 66.8299 56.2333 63.8817C59.1797 60.9353 63.9591 60.9353 66.9056 63.8817L88.9076 85.8837C89.5616 86.5378 87.7018 89.4607 84.7571 92.4055C81.8123 95.3503 78.8893 97.2101 78.2353 96.556L56.2333 74.554Z" fill="#EFEFEF"/>
<path fill-rule="evenodd" clip-rule="evenodd" d="M28.3665 34.2997C28.3279 32.7015 28.9283 31.5344 29.854 30.8502C31.3096 29.7769 33.4846 29.8222 34.6652 31.152C35.1717 31.7239 35.4651 32.5322 35.4735 33.5551C35.4937 36.0086 34.3432 37.4424 33.2163 38.9265C31.7003 40.9271 30.186 42.9831 29.9982 46.4159C29.9479 47.3416 30.6589 48.1315 31.5829 48.1818C32.5069 48.2321 33.2985 47.5227 33.3488 46.5987C33.4897 43.991 34.7373 42.4716 35.8894 40.9523C37.4322 38.9181 38.856 36.889 38.8275 33.5283C38.8107 31.5528 38.1517 30.0284 37.1723 28.925C34.8849 26.3491 30.6841 26.0708 27.8634 28.1502C26.173 29.3979 24.9438 31.4639 25.0125 34.3785C25.0343 35.3042 25.804 36.0371 26.7297 36.0153C27.6538 35.9935 28.3883 35.2254 28.3665 34.2997Z" fill="#A8C0C2"/>
<path d="M31.5178 54.4066C32.657 54.4066 33.5805 53.4831 33.5805 52.3439C33.5805 51.2047 32.657 50.2812 31.5178 50.2812C30.3786 50.2812 29.4551 51.2047 29.4551 52.3439C29.4551 53.4831 30.3786 54.4066 31.5178 54.4066Z" fill="#A8C0C2"/>
<path fill-rule="evenodd" clip-rule="evenodd" d="M61.697 10.9239L66.7279 2.53898C67.2042 1.74576 66.9476 0.714419 66.1527 0.238156C65.3595 -0.23643 64.3281 0.020148 63.8519 0.813361L58.8209 9.19827C58.3447 9.99316 58.6029 11.0245 59.3961 11.4991C60.191 11.9754 61.2207 11.7188 61.697 10.9239Z" fill="#A8C0C2"/>
<path fill-rule="evenodd" clip-rule="evenodd" d="M69.6278 16.4494L88.0746 3.03352C88.8225 2.48851 88.9885 1.43871 88.4452 0.690781C87.9002 -0.0588302 86.8504 -0.223174 86.1024 0.320168L67.6556 13.736C66.906 14.281 66.7417 15.3308 67.285 16.0788C67.83 16.8284 68.8798 16.9927 69.6278 16.4494Z" fill="#A8C0C2"/>
<path fill-rule="evenodd" clip-rule="evenodd" d="M72.4013 26.7789L85.8172 23.4249C86.7161 23.2002 87.2628 22.2896 87.038 21.3907C86.8133 20.4936 85.9027 19.9469 85.0039 20.1716L71.588 23.5255C70.6908 23.7503 70.1441 24.6609 70.3688 25.5597C70.5936 26.4569 71.5042 27.0036 72.4013 26.7789Z" fill="#A8C0C2"/>
</svg>
