<svg width="45" height="45" viewBox="0 0 45 45" fill="none" xmlns="http://www.w3.org/2000/svg">
<path d="M44.5 22.5C44.5 34.6503 34.6503 44.5 22.5 44.5C10.3497 44.5 0.5 34.6503 0.5 22.5C0.5 10.3497 10.3497 0.5 22.5 0.5C34.6503 0.5 44.5 10.3497 44.5 22.5Z" fill="white" stroke="#D1D1D1"/>
<path d="M24.2638 29.4643C24.1273 29.4651 23.9919 29.4389 23.8655 29.3873C23.7391 29.3356 23.6241 29.2595 23.5272 29.1634L17.3017 22.9379C17.1085 22.7435 17 22.4805 17 22.2064C17 21.9323 17.1085 21.6693 17.3017 21.4749L23.5272 15.2495C23.7257 15.0795 23.981 14.9907 24.2421 15.0008C24.5032 15.0109 24.751 15.1191 24.9357 15.3039C25.1205 15.4887 25.2288 15.7364 25.2389 15.9975C25.249 16.2587 25.1601 16.514 24.9901 16.7125L19.5014 22.2012L24.9901 27.69C25.1358 27.8345 25.2354 28.019 25.2763 28.2201C25.3172 28.4212 25.2975 28.6299 25.2197 28.8198C25.142 29.0097 25.0097 29.1723 24.8395 29.287C24.6694 29.4017 24.4691 29.4634 24.2638 29.4643V29.4643Z" fill="black"/>
</svg>
