<svg width="44" height="45" viewBox="0 0 44 45" fill="none" xmlns="http://www.w3.org/2000/svg">
<circle cx="22" cy="22.2656" r="22" fill="#2282DB" fill-opacity="0.12"/>
<path d="M33.1547 18.4438C32.4479 17.737 31.2979 17.7371 30.5908 18.444C30.3734 18.6616 28.985 20.0511 28.7729 20.2634V15.4749C28.7729 14.9907 28.5844 14.5355 28.242 14.1932L26.533 12.4841C26.1906 12.1417 25.7354 11.9531 25.2512 11.9531H14.8752C13.8757 11.9531 13.0625 12.7663 13.0625 13.7659V30.7654C13.0625 31.7649 13.8757 32.5781 14.8752 32.5781H26.9602C27.9598 32.5781 28.7729 31.7649 28.7729 30.7654V25.3929L33.1546 21.0075C33.8631 20.299 33.8633 19.1523 33.1547 18.4438ZM25.1475 13.1616C25.2617 13.1616 25.4817 13.1418 25.6784 13.3386L27.3875 15.0477C27.5792 15.2395 27.5645 15.4496 27.5645 15.5786H25.1475V13.1616ZM27.5645 30.7654C27.5645 31.0986 27.2934 31.3696 26.9602 31.3696H14.8752C14.5421 31.3696 14.271 31.0986 14.271 30.7654V13.7659C14.271 13.4327 14.5421 13.1616 14.8752 13.1616H23.939V16.1829C23.939 16.5166 24.2095 16.7871 24.5432 16.7871H27.5645V21.473C27.5645 21.473 25.7818 23.2572 25.7817 23.2572L24.9276 24.1114C24.8612 24.1777 24.8112 24.2586 24.7816 24.3476L23.927 26.9112C23.8546 27.1283 23.9111 27.3677 24.073 27.5296C24.235 27.6916 24.4745 27.7478 24.6913 27.6755L27.255 26.821C27.3439 26.7914 27.4248 26.7414 27.4911 26.675L27.5645 26.6017V30.7654ZM26.2093 24.5387L27.0639 25.3932L26.7374 25.7196L25.4557 26.1469L25.8829 24.8651L26.2093 24.5387ZM27.9182 24.5385L27.0637 23.684C27.5187 23.2286 29.5397 21.2059 29.9683 20.7769L30.8228 21.6314L27.9182 24.5385ZM32.2999 20.1531L31.677 20.7765L30.8225 19.922L31.4456 19.2984C31.6814 19.0627 32.0646 19.0628 32.3002 19.2984C32.5357 19.534 32.537 19.916 32.2999 20.1531Z" fill="#207ED6"/>
<path d="M24.5432 17.9922H16.0837C15.75 17.9922 15.4795 18.2627 15.4795 18.5964C15.4795 18.9301 15.75 19.2007 16.0837 19.2007H24.5432C24.8769 19.2007 25.1475 18.9301 25.1475 18.5964C25.1475 18.2627 24.8769 17.9922 24.5432 17.9922Z" fill="#207ED6"/>
<path d="M22.1282 20.4141H16.0857C15.752 20.4141 15.4814 20.6846 15.4814 21.0183C15.4814 21.352 15.752 21.6226 16.0857 21.6226H22.1282C22.4619 21.6226 22.7324 21.352 22.7324 21.0183C22.7324 20.6846 22.4619 20.4141 22.1282 20.4141Z" fill="#207ED6"/>
<path d="M22.1282 22.8281H16.0857C15.752 22.8281 15.4814 23.0987 15.4814 23.4324C15.4814 23.7661 15.752 24.0366 16.0857 24.0366H22.1282C22.4619 24.0366 22.7324 23.7661 22.7324 23.4324C22.7324 23.0987 22.4619 22.8281 22.1282 22.8281Z" fill="#207ED6"/>
<path d="M22.1262 25.25H16.0837C15.75 25.25 15.4795 25.5205 15.4795 25.8542C15.4795 26.188 15.75 26.4585 16.0837 26.4585H22.1262C22.4599 26.4585 22.7305 26.188 22.7305 25.8542C22.7305 25.5205 22.4599 25.25 22.1262 25.25Z" fill="#207ED6"/>
<path d="M24.5432 28.9531H20.9177C20.584 28.9531 20.3135 29.2237 20.3135 29.5574C20.3135 29.8911 20.584 30.1616 20.9177 30.1616H24.5432C24.8769 30.1616 25.1475 29.8911 25.1475 29.5574C25.1475 29.2237 24.8769 28.9531 24.5432 28.9531Z" fill="#207ED6"/>
</svg>
