<svg width="53" height="53" viewBox="0 0 53 53" fill="none" xmlns="http://www.w3.org/2000/svg">
<circle cx="26.0996" cy="26.7344" r="25.5" fill="white" stroke="#8E8E8E"/>
<path d="M21.0695 19.5009H28.3041C28.5754 19.5009 28.7564 19.3199 28.7564 19.0486V18.1444C28.7564 17.8731 28.5754 17.692 28.3041 17.692H26.4501C26.2695 16.9254 25.5459 16.3359 24.6868 16.3359C23.8277 16.3359 23.1493 16.9254 22.9231 17.6925H21.0695C20.7982 17.6925 20.6172 17.8735 20.6172 18.1448V19.049C20.6172 19.3203 20.7982 19.5009 21.0695 19.5009Z" fill="#8E8E8E"/>
<path d="M25.5911 33.0673C25.5892 32.4135 25.7166 31.7659 25.9659 31.1615C26.2153 30.5572 26.5816 30.0081 27.0439 29.5459C27.5062 29.0836 28.0553 28.7173 28.6596 28.4681C29.264 28.2188 29.9117 28.0915 30.5654 28.0934C31.1861 28.0954 31.8005 28.2182 32.3743 28.455V19.9542C32.3743 19.1854 31.7865 18.5977 31.0177 18.5977H29.6608V19.05C29.6608 19.8188 29.073 20.4065 28.3042 20.4065H21.0696C20.3008 20.4065 19.7131 19.8188 19.7131 19.05V18.5977H18.3565C17.5878 18.5977 17 19.1837 17 19.9542V35.7804C17 36.5491 17.5878 37.1369 18.3565 37.1369H27.7165C26.4502 36.2327 25.5911 34.7407 25.5911 33.0673ZM20.6173 22.6673H24.2346C24.5059 22.6673 24.6869 22.8483 24.6869 23.1196C24.6869 23.3909 24.5059 23.5719 24.2346 23.5719H20.6173C20.346 23.5719 20.165 23.3909 20.165 23.1196C20.165 22.8483 20.346 22.6673 20.6173 22.6673ZM20.6173 24.928H28.7565C29.0278 24.928 29.2089 25.1091 29.2089 25.3804C29.2089 25.6517 29.0278 25.8327 28.7565 25.8327H20.6173C20.346 25.8327 20.165 25.6517 20.165 25.3804C20.165 25.1091 20.346 24.928 20.6173 24.928ZM20.165 27.6411C20.165 27.3698 20.346 27.1888 20.6173 27.1888H25.5911C25.8624 27.1888 26.0435 27.3698 26.0435 27.6411C26.0435 27.9124 25.8624 28.0934 25.5911 28.0934H20.6173C20.346 28.0934 20.165 27.9124 20.165 27.6411Z" fill="#8E8E8E"/>
<path d="M30.5657 28.9961C29.7608 28.9961 28.974 29.2348 28.3048 29.682C27.6355 30.1292 27.1139 30.7647 26.8059 31.5084C26.4979 32.252 26.4173 33.0703 26.5743 33.8597C26.7313 34.6491 27.1189 35.3743 27.6881 35.9434C28.2572 36.5126 28.9823 36.9001 29.7718 37.0572C30.5612 37.2142 31.3795 37.1336 32.1231 36.8256C32.8667 36.5176 33.5023 35.996 33.9495 35.3267C34.3967 34.6575 34.6353 33.8706 34.6353 33.0658C34.6376 32.5307 34.5338 32.0005 34.3301 31.5057C34.1264 31.011 33.8267 30.5614 33.4484 30.1831C33.07 29.8048 32.6205 29.5051 32.1257 29.3013C31.631 29.0976 31.1008 28.9939 30.5657 28.9961ZM32.3273 31.8902L30.9707 34.6033C30.9475 34.6689 30.9046 34.7257 30.848 34.7661C30.7915 34.8066 30.7238 34.8287 30.6543 34.8295H30.564C30.5046 34.8311 30.4455 34.8199 30.3909 34.7965C30.3362 34.7731 30.2873 34.7382 30.2475 34.694L28.891 33.3375C28.8488 33.2961 28.8153 33.2467 28.7923 33.1923C28.7694 33.1378 28.7574 33.0793 28.7572 33.0202C28.7569 32.9611 28.7684 32.9026 28.7909 32.8479C28.8134 32.7933 28.8465 32.7436 28.8882 32.7018C28.93 32.6601 28.9797 32.627 29.0343 32.6045C29.089 32.582 29.1475 32.5705 29.2066 32.5708C29.2657 32.571 29.3242 32.583 29.3787 32.6059C29.4331 32.6289 29.4825 32.6624 29.5239 32.7046L30.4281 33.6088L31.5133 31.4383C31.6036 31.2122 31.8749 31.1219 32.1011 31.2573C32.3273 31.4379 32.4197 31.7092 32.3273 31.8902Z" fill="#8E8E8E"/>
</svg>
