<svg width="53" height="52" viewBox="0 0 53 52" fill="none" xmlns="http://www.w3.org/2000/svg">
<circle cx="26.0996" cy="26" r="25.5" fill="#125E66" stroke="#125E66"/>
<path d="M21.069 18.7665H28.3036C28.5749 18.7665 28.7559 18.5855 28.7559 18.3142V17.41C28.7559 17.1387 28.5749 16.9577 28.3036 16.9577H26.4496C26.269 16.1911 25.5454 15.6016 24.6863 15.6016C23.8273 15.6016 23.1488 16.1911 22.9226 16.9581H21.069C20.7977 16.9581 20.6167 17.1391 20.6167 17.4104V18.3146C20.6167 18.586 20.7977 18.7665 21.069 18.7665Z" fill="white"/>
<path d="M25.5906 32.3329C25.5888 31.6792 25.7161 31.0315 25.9654 30.4272C26.2148 29.8228 26.5811 29.2737 27.0434 28.8115C27.5057 28.3493 28.0548 27.983 28.6591 27.7337C29.2635 27.4844 29.9112 27.3571 30.5649 27.3591C31.1856 27.361 31.8 27.4838 32.3738 27.7207V19.2198C32.3738 18.451 31.786 17.8633 31.0172 17.8633H29.6603V18.3156C29.6603 19.0844 29.0725 19.6721 28.3037 19.6721H21.0691C20.3004 19.6721 19.7126 19.0844 19.7126 18.3156V17.8633H18.3561C17.5873 17.8633 16.9995 18.4493 16.9995 19.2198V35.046C16.9995 35.8148 17.5873 36.4025 18.3561 36.4025H27.716C26.4497 35.4983 25.5906 34.0063 25.5906 32.3329ZM20.6168 21.9329H24.2341C24.5054 21.9329 24.6864 22.1139 24.6864 22.3852C24.6864 22.6565 24.5054 22.8376 24.2341 22.8376H20.6168C20.3455 22.8376 20.1645 22.6565 20.1645 22.3852C20.1645 22.1139 20.3455 21.9329 20.6168 21.9329ZM20.6168 24.1937H28.7561C29.0274 24.1937 29.2084 24.3747 29.2084 24.646C29.2084 24.9173 29.0274 25.0983 28.7561 25.0983H20.6168C20.3455 25.0983 20.1645 24.9173 20.1645 24.646C20.1645 24.3747 20.3455 24.1937 20.6168 24.1937ZM20.1645 26.9067C20.1645 26.6354 20.3455 26.4544 20.6168 26.4544H25.5906C25.862 26.4544 26.043 26.6354 26.043 26.9067C26.043 27.178 25.862 27.3591 25.5906 27.3591H20.6168C20.3455 27.3591 20.1645 27.178 20.1645 26.9067Z" fill="white"/>
<path d="M30.565 28.2618C29.7601 28.2618 28.9733 28.5004 28.304 28.9476C27.6348 29.3948 27.1132 30.0304 26.8051 30.774C26.4971 31.5176 26.4165 32.3359 26.5736 33.1253C26.7306 33.9147 27.1182 34.6399 27.6873 35.209C28.2565 35.7782 28.9816 36.1658 29.771 36.3228C30.5605 36.4798 31.3787 36.3992 32.1224 36.0912C32.866 35.7832 33.5016 35.2616 33.9488 34.5923C34.3959 33.9231 34.6346 33.1363 34.6346 32.3314C34.6368 31.7963 34.5331 31.2661 34.3294 30.7714C34.1257 30.2766 33.826 29.8271 33.4476 29.4487C33.0693 29.0704 32.6198 28.7707 32.125 28.567C31.6302 28.3633 31.1 28.2595 30.565 28.2618ZM32.3265 31.1559L30.97 33.8689C30.9467 33.9345 30.9039 33.9913 30.8473 34.0318C30.7907 34.0722 30.7231 34.0943 30.6535 34.0951H30.5632C30.5038 34.0968 30.4448 34.0855 30.3901 34.0621C30.3355 34.0388 30.2866 34.0038 30.2468 33.9597L28.8903 32.6031C28.8481 32.5617 28.8146 32.5123 28.7916 32.4579C28.7686 32.4034 28.7567 32.345 28.7564 32.2859C28.7562 32.2268 28.7676 32.1682 28.7901 32.1136C28.8126 32.0589 28.8457 32.0093 28.8875 31.9675C28.9293 31.9257 28.979 31.8926 29.0336 31.8701C29.0882 31.8476 29.1468 31.8361 29.2059 31.8364C29.265 31.8366 29.3235 31.8486 29.3779 31.8716C29.4324 31.8945 29.4817 31.9281 29.5232 31.9702L30.4274 32.8744L31.5126 30.704C31.6029 30.4778 31.8742 30.3875 32.1004 30.5229C32.3265 30.7035 32.419 30.9748 32.3265 31.1559Z" fill="white"/>
</svg>
