<svg width="53" height="53" viewBox="0 0 53 53" fill="none" xmlns="http://www.w3.org/2000/svg">
<circle cx="26.8516" cy="26.5547" r="25.5" fill="#125E66" stroke="#125E66"/>
<path d="M34.7678 30.2188C33.6261 30.2188 32.6973 31.1478 32.6973 32.2892C32.6973 33.4309 33.6261 34.3597 34.7678 34.3597C35.9092 34.3597 36.8383 33.4309 36.8383 32.2892C36.8383 31.1478 35.9092 30.2188 34.7678 30.2188ZM34.7678 32.8982C34.4319 32.8982 34.1588 32.6251 34.1588 32.2892C34.1588 31.9534 34.4319 31.6803 34.7678 31.6803C35.1037 31.6803 35.3767 31.9534 35.3767 32.2892C35.3767 32.6251 35.1037 32.8982 34.7678 32.8982Z" fill="white"/>
<path d="M34.5704 21.6094H30.993C30.7239 21.6094 30.5059 21.8276 30.5059 22.0966V31.5965C30.5059 31.8654 30.7239 32.0837 30.993 32.0837H31.5097C31.7509 32.0837 31.9645 31.91 31.9956 31.6708C32.1869 30.2058 33.3554 29.2973 34.7689 29.2973C36.1824 29.2973 37.3509 30.2059 37.5421 31.6708C37.5733 31.91 37.7867 32.0837 38.0281 32.0837H38.5442C38.8131 32.0837 39.0314 31.8654 39.0314 31.5965V26.8465C39.0314 26.732 38.9912 26.6214 38.9179 26.534L34.944 21.784C34.8515 21.6735 34.7146 21.6094 34.5704 21.6094ZM31.4802 25.5068V23.0709C31.4802 22.802 31.6982 22.5837 31.9674 22.5837H34.1134C34.2578 22.5837 34.395 22.648 34.4875 22.7591L36.5173 25.195C36.7816 25.5124 36.5561 25.994 36.143 25.994H31.9674C31.6982 25.994 31.4802 25.776 31.4802 25.5068Z" fill="white"/>
<path d="M15.1591 32.0834H16.4065C16.6476 32.0834 16.8613 31.9097 16.8924 31.6706C17.0836 30.2056 18.2521 29.2971 19.6657 29.2971C21.0792 29.2971 22.2477 30.2057 22.4389 31.6706C22.4701 31.9098 22.6834 32.0834 22.9248 32.0834H29.0436C29.3125 32.0834 29.5307 31.8652 29.5307 31.5963V19.4169C29.5307 19.148 29.3125 18.9297 29.0436 18.9297H15.1591C14.8899 18.9297 14.6719 19.148 14.6719 19.4169V31.5963C14.6719 31.8652 14.8899 32.0834 15.1591 32.0834Z" fill="white"/>
<path d="M19.6662 30.2188C18.5245 30.2188 17.5957 31.1478 17.5957 32.2892C17.5957 33.4309 18.5245 34.3597 19.6662 34.3597C20.8076 34.3597 21.7367 33.4309 21.7367 32.2892C21.7367 31.1478 20.8076 30.2188 19.6662 30.2188ZM19.6662 32.8982C19.3303 32.8982 19.0572 32.6251 19.0572 32.2892C19.0572 31.9534 19.3303 31.6803 19.6662 31.6803C20.0021 31.6803 20.2752 31.9534 20.2752 32.2892C20.2752 32.6251 20.0021 32.8982 19.6662 32.8982Z" fill="white"/>
</svg>
