<svg width="53" height="53" viewBox="0 0 53 53" fill="none" xmlns="http://www.w3.org/2000/svg">
<circle cx="26.5" cy="26.7344" r="25.5" fill="white" stroke="#8E8E8E"/>
<path d="M34.4162 30.3906C33.2745 30.3906 32.3457 31.3197 32.3457 32.4611C32.3457 33.6028 33.2745 34.5316 34.4162 34.5316C35.5576 34.5316 36.4867 33.6028 36.4867 32.4611C36.4867 31.3197 35.5576 30.3906 34.4162 30.3906ZM34.4162 33.0701C34.0803 33.0701 33.8072 32.797 33.8072 32.4611C33.8072 32.1252 34.0803 31.8522 34.4162 31.8522C34.7521 31.8522 35.0252 32.1252 35.0252 32.4611C35.0252 32.797 34.7521 33.0701 34.4162 33.0701Z" fill="#8E8E8E"/>
<path d="M34.2178 21.7852H30.6405C30.3713 21.7852 30.1533 22.0034 30.1533 22.2723V31.7723C30.1533 32.0412 30.3713 32.2594 30.6405 32.2594H31.1572C31.3983 32.2594 31.6119 32.0857 31.6431 31.8466C31.8343 30.3816 33.0028 29.4731 34.4163 29.4731C35.8299 29.4731 36.9984 30.3817 37.1896 31.8466C37.2208 32.0858 37.4341 32.2594 37.6755 32.2594H38.1917C38.4606 32.2594 38.6789 32.0412 38.6789 31.7723V27.0223C38.6789 26.9078 38.6387 26.7972 38.5653 26.7098L34.5914 21.9598C34.4989 21.8492 34.362 21.7852 34.2178 21.7852ZM31.1277 25.6826V23.2467C31.1277 22.9778 31.3457 22.7595 31.6148 22.7595H33.7609C33.9053 22.7595 34.0424 22.8238 34.135 22.9349L36.1648 25.3708C36.4291 25.6881 36.2035 26.1697 35.7904 26.1697H31.6148C31.3457 26.1697 31.1277 25.9517 31.1277 25.6826Z" fill="#8E8E8E"/>
<path d="M14.8075 32.2592H16.0549C16.2961 32.2592 16.5097 32.0855 16.5409 31.8464C16.7321 30.3814 17.9006 29.4728 19.3141 29.4728C20.7276 29.4728 21.8961 30.3814 22.0873 31.8464C22.1185 32.0856 22.3319 32.2592 22.5733 32.2592H28.692C28.9609 32.2592 29.1792 32.0409 29.1792 31.772V19.5926C29.1792 19.3237 28.9609 19.1055 28.692 19.1055H14.8075C14.5383 19.1055 14.3203 19.3237 14.3203 19.5926V31.772C14.3203 32.041 14.5383 32.2592 14.8075 32.2592Z" fill="#8E8E8E"/>
<path d="M19.3137 30.3906C18.172 30.3906 17.2432 31.3197 17.2432 32.4611C17.2432 33.6028 18.172 34.5316 19.3137 34.5316C20.4551 34.5316 21.3842 33.6028 21.3842 32.4611C21.3842 31.3197 20.4551 30.3906 19.3137 30.3906ZM19.3137 33.0701C18.9778 33.0701 18.7047 32.797 18.7047 32.4611C18.7047 32.1252 18.9778 31.8522 19.3137 31.8522C19.6496 31.8522 19.9226 32.1252 19.9226 32.4611C19.9226 32.797 19.6496 33.0701 19.3137 33.0701Z" fill="#8E8E8E"/>
</svg>
