<svg width="52" height="53" viewBox="0 0 52 53" fill="none" xmlns="http://www.w3.org/2000/svg">
<circle cx="26" cy="26.7344" r="25.5" fill="#125E66" stroke="#125E66"/>
<path d="M26.1257 26.0095L35.6093 22.0164C35.7452 21.9591 35.8955 22.0589 35.8955 22.2064V32.8816C35.8955 33.1513 35.7313 33.394 35.4808 33.4941L26.2823 37.1735C26.1469 37.2277 25.9996 37.128 25.9996 36.9821V26.1995C25.9996 26.1165 26.0493 26.0417 26.1257 26.0095Z" fill="white"/>
<path d="M25.7649 24.8226L16.5981 20.9629C16.4334 20.8936 16.4289 20.6617 16.591 20.5861L25.5659 16.3978C25.7427 16.3153 25.947 16.3153 26.1239 16.3978L35.0988 20.5861C35.2608 20.6617 35.2564 20.8936 35.0916 20.9629L25.9249 24.8226C25.8737 24.8442 25.816 24.8442 25.7649 24.8226Z" fill="white"/>
<path d="M25.1846 26.1487V36.9313C25.1846 37.0772 25.0372 37.1769 24.9018 37.1227L15.7033 33.4433C15.4529 33.3431 15.2886 33.1006 15.2886 32.8308V22.1556C15.2886 22.0082 15.4389 21.9084 15.5748 21.9656L25.0584 25.9587C25.1348 25.9909 25.1846 26.0657 25.1846 26.1487Z" fill="white"/>
</svg>
