<svg width="52" height="52" viewBox="0 0 52 52" fill="none" xmlns="http://www.w3.org/2000/svg">
<circle cx="26" cy="26" r="25.5" fill="white" stroke="#125E66"/>
<path d="M26.6306 25.2243L36.1142 21.2312C36.2501 21.174 36.4004 21.2738 36.4004 21.4212V32.0964C36.4004 32.3662 36.2362 32.6088 35.9857 32.709L26.7872 36.3884C26.6518 36.4425 26.5044 36.3428 26.5044 36.197V25.4143C26.5044 25.3314 26.5542 25.2565 26.6306 25.2243Z" fill="#125E66"/>
<path d="M25.7639 24.0882L16.5971 20.2286C16.4324 20.1592 16.428 19.9273 16.59 19.8517L25.5649 15.6634C25.7418 15.5809 25.946 15.5809 26.1229 15.6634L35.0978 19.8517C35.2598 19.9273 35.2554 20.1592 35.0906 20.2286L25.9239 24.0882C25.8728 24.1098 25.815 24.1098 25.7639 24.0882Z" fill="#125E66"/>
<path d="M25.1855 25.4143V36.197C25.1855 36.3428 25.0382 36.4425 24.9028 36.3884L15.7043 32.709C15.4539 32.6088 15.2896 32.3662 15.2896 32.0964V21.4212C15.2896 21.2738 15.4399 21.174 15.5757 21.2312L25.0594 25.2243C25.1358 25.2565 25.1855 25.3314 25.1855 25.4143Z" fill="#125E66"/>
</svg>
