<svg width="53" height="52" viewBox="0 0 53 52" fill="none" xmlns="http://www.w3.org/2000/svg">
<circle cx="26.5" cy="26" r="25.5" fill="white" stroke="#125E66"/>
<path d="M34.4167 29.6562C33.275 29.6562 32.3462 30.5853 32.3462 31.7267C32.3462 32.8684 33.275 33.7972 34.4167 33.7972C35.5581 33.7972 36.4872 32.8684 36.4872 31.7267C36.4872 30.5853 35.5581 29.6562 34.4167 29.6562ZM34.4167 32.3357C34.0808 32.3357 33.8077 32.0626 33.8077 31.7267C33.8077 31.3909 34.0808 31.1178 34.4167 31.1178C34.7526 31.1178 35.0257 31.3909 35.0257 31.7267C35.0257 32.0626 34.7526 32.3357 34.4167 32.3357Z" fill="#125E66"/>
<path d="M34.2188 21.0508H30.6415C30.3723 21.0508 30.1543 21.2691 30.1543 21.538V31.0379C30.1543 31.3068 30.3723 31.5251 30.6415 31.5251H31.1581C31.3993 31.5251 31.6129 31.3514 31.6441 31.1122C31.8353 29.6472 33.0038 28.7387 34.4173 28.7387C35.8309 28.7387 36.9994 29.6473 37.1906 31.1122C37.2217 31.3514 37.4351 31.5251 37.6765 31.5251H38.1927C38.4616 31.5251 38.6798 31.3068 38.6798 31.0379V26.2879C38.6798 26.1735 38.6396 26.0628 38.5663 25.9754L34.5924 21.2254C34.4999 21.1149 34.363 21.0508 34.2188 21.0508ZM31.1286 24.9482V22.5123C31.1286 22.2434 31.3466 22.0251 31.6158 22.0251H33.7618C33.9063 22.0251 34.0434 22.0895 34.136 22.2005L36.1658 24.6364C36.4301 24.9538 36.2045 25.4354 35.7914 25.4354H31.6158C31.3466 25.4354 31.1286 25.2174 31.1286 24.9482Z" fill="#125E66"/>
<path d="M14.808 31.5248H16.0554C16.2966 31.5248 16.5102 31.3511 16.5414 31.112C16.7326 29.647 17.9011 28.7385 19.3146 28.7385C20.7281 28.7385 21.8966 29.6471 22.0878 31.112C22.119 31.3512 22.3324 31.5248 22.5738 31.5248H28.6925C28.9614 31.5248 29.1797 31.3066 29.1797 31.0377V18.8583C29.1797 18.5894 28.9614 18.3711 28.6925 18.3711H14.808C14.5388 18.3711 14.3208 18.5894 14.3208 18.8583V31.0377C14.3208 31.3066 14.5388 31.5248 14.808 31.5248Z" fill="#125E66"/>
<path d="M19.3146 29.6562C18.173 29.6562 17.2441 30.5853 17.2441 31.7267C17.2441 32.8684 18.173 33.7972 19.3146 33.7972C20.4561 33.7972 21.3851 32.8684 21.3851 31.7267C21.3851 30.5853 20.4561 29.6562 19.3146 29.6562ZM19.3146 32.3357C18.9787 32.3357 18.7057 32.0626 18.7057 31.7267C18.7057 31.3909 18.9787 31.1178 19.3146 31.1178C19.6505 31.1178 19.9236 31.3909 19.9236 31.7267C19.9236 32.0626 19.6505 32.3357 19.3146 32.3357Z" fill="#125E66"/>
</svg>
