<svg width="15" height="15" viewBox="0 0 15 15" fill="none" xmlns="http://www.w3.org/2000/svg">
<g clip-path="url(#clip0_666_16426)">
<path d="M7.47438 1.29688C5.41556 1.29688 3.7685 2.94393 3.7685 5.00276V6.64982C3.0685 6.64982 2.5332 7.18511 2.5332 7.88511V13.2381C2.5332 13.9381 3.0685 14.4733 3.7685 14.4733H11.1803C11.8803 14.4733 12.4156 13.9381 12.4156 13.2381V7.88511C12.4156 7.18511 11.8803 6.64982 11.1803 6.64982V5.00276C11.1803 2.94393 9.5332 1.29688 7.47438 1.29688ZM11.592 7.88511V13.2381C11.592 13.4851 11.4273 13.6498 11.1803 13.6498H3.7685C3.52144 13.6498 3.35673 13.4851 3.35673 13.2381V7.88511C3.35673 7.63805 3.52144 7.47335 3.7685 7.47335H4.18026H10.7685H11.1803C11.4273 7.47335 11.592 7.63805 11.592 7.88511ZM4.59203 6.64982V5.00276C4.59203 3.39687 5.8685 2.1204 7.47438 2.1204C9.08026 2.1204 10.3567 3.39687 10.3567 5.00276V6.64982H4.59203Z" fill="black"/>
<path d="M7.47455 8.71094C6.77455 8.71094 6.23926 9.24623 6.23926 9.94623C6.23926 10.4815 6.56867 10.9345 7.06279 11.0992V12.0051C7.06279 12.2521 7.22749 12.4168 7.47455 12.4168C7.72161 12.4168 7.88632 12.2521 7.88632 12.0051V11.0992C8.38043 10.9345 8.70985 10.4815 8.70985 9.94623C8.70985 9.24623 8.17455 8.71094 7.47455 8.71094ZM7.47455 10.358C7.22749 10.358 7.06279 10.1933 7.06279 9.94623C7.06279 9.69917 7.22749 9.53447 7.47455 9.53447C7.72161 9.53447 7.88632 9.69917 7.88632 9.94623C7.88632 10.1933 7.72161 10.358 7.47455 10.358Z" fill="black"/>
</g>
<defs>
<clipPath id="clip0_666_16426">
<rect width="14" height="14" fill="white" transform="translate(0.474609 0.882812)"/>
</clipPath>
</defs>
</svg>
