<svg width="44" height="45" viewBox="0 0 44 45" fill="none" xmlns="http://www.w3.org/2000/svg">
<circle cx="22" cy="22.2656" r="22" fill="#EBFFF1"/>
<path d="M31.4875 17.0406C31.35 16.8344 31.1437 16.7656 30.9375 16.7656H16.2937L15.125 13.1219C15.0562 12.8469 14.7125 12.6406 14.4375 12.6406H13.0625C12.65 12.6406 12.375 12.9156 12.375 13.3281C12.375 13.7406 12.65 14.0156 13.0625 14.0156H13.9562L15.125 17.6594L17.1875 26.5969C17.2562 26.8719 17.5312 27.1469 17.875 27.0781H28.875C29.2187 27.0781 29.4937 26.8719 29.5625 26.5281L31.625 17.5906C31.6937 17.3844 31.625 17.1781 31.4875 17.0406V17.0406ZM18.425 25.7031L16.7062 18.1406H30.1125L29.5625 20.2031H19.9375C19.525 20.2031 19.25 20.4781 19.25 20.8906C19.25 21.3031 19.525 21.5781 19.9375 21.5781H29.2875L28.9437 22.9531H28.875H21.3125C20.9 22.9531 20.625 23.2281 20.625 23.6406C20.625 24.0531 20.9 24.3281 21.3125 24.3281H28.6687L28.325 25.7031H18.425Z" fill="#88C199"/>
<path d="M19.9375 27.7656C18.7687 27.7656 17.875 28.6594 17.875 29.8281C17.875 30.9969 18.7687 31.8906 19.9375 31.8906C21.1063 31.8906 22 30.9969 22 29.8281C22 28.6594 21.1063 27.7656 19.9375 27.7656ZM19.9375 30.5156C19.525 30.5156 19.25 30.2406 19.25 29.8281C19.25 29.4156 19.525 29.1406 19.9375 29.1406C20.35 29.1406 20.625 29.4156 20.625 29.8281C20.625 30.2406 20.35 30.5156 19.9375 30.5156Z" fill="#88C199"/>
<path d="M26.8125 27.7656C25.6437 27.7656 24.75 28.6594 24.75 29.8281C24.75 30.9969 25.6437 31.8906 26.8125 31.8906C27.9813 31.8906 28.875 30.9969 28.875 29.8281C28.875 28.6594 27.9813 27.7656 26.8125 27.7656ZM26.8125 30.5156C26.4 30.5156 26.125 30.2406 26.125 29.8281C26.125 29.4156 26.4 29.1406 26.8125 29.1406C27.225 29.1406 27.5 29.4156 27.5 29.8281C27.5 30.2406 27.225 30.5156 26.8125 30.5156Z" fill="#88C199"/>
</svg>
