<svg width="13" height="12" viewBox="0 0 13 12" fill="none" xmlns="http://www.w3.org/2000/svg">
<path d="M6.32592 0C3.01265 0 0.326172 2.68648 0.326172 5.99975C0.326172 9.31302 3.01265 12 6.32592 12C9.63919 12 12.3262 9.31302 12.3262 5.99975C12.3262 2.68648 9.63919 0 6.32592 0ZM7.57493 9.29879C7.26611 9.4207 7.02027 9.51314 6.83589 9.57714C6.65201 9.64114 6.43817 9.67314 6.19487 9.67314C5.82103 9.67314 5.52998 9.58171 5.32274 9.39937C5.11551 9.21702 5.01239 8.98591 5.01239 8.70502C5.01239 8.59581 5.02001 8.48406 5.03525 8.37029C5.051 8.25651 5.07589 8.12851 5.10992 7.98476L5.49646 6.61943C5.53049 6.48838 5.55995 6.36394 5.58332 6.24813C5.60668 6.1313 5.61785 6.02413 5.61785 5.9266C5.61785 5.75289 5.58179 5.63098 5.51017 5.56241C5.43754 5.49384 5.3009 5.46032 5.09722 5.46032C4.99766 5.46032 4.89506 5.47505 4.78992 5.50603C4.68579 5.53803 4.59538 5.56698 4.52122 5.59543L4.62331 5.17486C4.87627 5.07175 5.11855 4.98337 5.34966 4.91022C5.58078 4.83606 5.79919 4.79949 6.0049 4.79949C6.3762 4.79949 6.66268 4.8899 6.86433 5.0687C7.06497 5.248 7.16605 5.48114 7.16605 5.76762C7.16605 5.82705 7.15893 5.93168 7.14522 6.08102C7.13151 6.23086 7.1056 6.36749 7.06801 6.49295L6.68351 7.85422C6.65201 7.96343 6.62408 8.08838 6.59868 8.22806C6.57379 8.36775 6.5616 8.47441 6.5616 8.54603C6.5616 8.72686 6.60173 8.85029 6.683 8.91581C6.76325 8.98133 6.90395 9.01435 7.10306 9.01435C7.19703 9.01435 7.30217 8.99759 7.42103 8.96508C7.53887 8.93257 7.6242 8.90362 7.67805 8.87873L7.57493 9.29879ZM7.50687 3.77346C7.32757 3.94006 7.1117 4.02337 6.85925 4.02337C6.60732 4.02337 6.38992 3.94006 6.20909 3.77346C6.02928 3.60686 5.93836 3.40419 5.93836 3.16749C5.93836 2.9313 6.02979 2.72813 6.20909 2.56C6.38992 2.39137 6.60732 2.30756 6.85925 2.30756C7.1117 2.30756 7.32808 2.39137 7.50687 2.56C7.68617 2.72813 7.77608 2.9313 7.77608 3.16749C7.77608 3.4047 7.68617 3.60686 7.50687 3.77346Z" fill="#888888"/>
</svg>
