<svg width="26" height="33" viewBox="0 0 26 33" fill="none" xmlns="http://www.w3.org/2000/svg">
<path d="M23.5 4.03125H18V3.03125C18 1.37706 16.6542 0.03125 15 0.03125H11C9.34581 0.03125 8 1.37706 8 3.03125V4.03125H2.5C1.1215 4.03125 0 5.15275 0 6.53125V10.0312C0 10.5835 0.44775 11.0312 1 11.0312H1.5465L2.41044 29.1739C2.48675 30.7762 3.803 32.0312 5.407 32.0312H20.593C22.1971 32.0312 23.5133 30.7762 23.5896 29.1739L24.4535 11.0312H25C25.5522 11.0312 26 10.5835 26 10.0312V6.53125C26 5.15275 24.8785 4.03125 23.5 4.03125ZM10 3.03125C10 2.47988 10.4486 2.03125 11 2.03125H15C15.5514 2.03125 16 2.47988 16 3.03125V4.03125H10V3.03125ZM2 6.53125C2 6.25556 2.22431 6.03125 2.5 6.03125H23.5C23.7757 6.03125 24 6.25556 24 6.53125V9.03125C23.6918 9.03125 3.27706 9.03125 2 9.03125V6.53125ZM21.5918 29.0788C21.5664 29.6129 21.1276 30.0312 20.593 30.0312H5.407C4.87231 30.0312 4.43356 29.6129 4.40819 29.0788L3.54875 11.0312H22.4513L21.5918 29.0788Z" fill="#125E66"/>
<path d="M13 28.0312C13.5523 28.0312 14 27.5835 14 27.0312V14.0312C14 13.479 13.5523 13.0312 13 13.0312C12.4477 13.0312 12 13.479 12 14.0312V27.0312C12 27.5835 12.4477 28.0312 13 28.0312Z" fill="#125E66"/>
<path d="M18 28.0312C18.5523 28.0312 19 27.5835 19 27.0312V14.0312C19 13.479 18.5523 13.0312 18 13.0312C17.4477 13.0312 17 13.479 17 14.0312V27.0312C17 27.5835 17.4477 28.0312 18 28.0312Z" fill="#125E66"/>
<path d="M8 28.0312C8.55225 28.0312 9 27.5835 9 27.0312V14.0312C9 13.479 8.55225 13.0312 8 13.0312C7.44775 13.0312 7 13.479 7 14.0312V27.0312C7 27.5835 7.44769 28.0312 8 28.0312Z" fill="#125E66"/>
</svg>
