<svg width="26" height="27" viewBox="0 0 26 27" fill="none" xmlns="http://www.w3.org/2000/svg">
<ellipse cx="12.9521" cy="13.7698" rx="12.5" ry="12.9808" fill="#00AD50"/>
<path d="M19.3379 10.4336L11.8334 18.8923C11.7454 18.996 11.6398 19.0785 11.5228 19.1349C11.4058 19.1912 11.2799 19.2203 11.1527 19.2203C11.0254 19.2203 10.8995 19.1912 10.7825 19.1349C10.6655 19.0785 10.5599 18.996 10.4719 18.8923L7.40042 15.4493C7.31102 15.3481 7.24017 15.2281 7.19191 15.096C7.14365 14.964 7.11892 14.8225 7.11914 14.6797C7.11958 14.3912 7.22161 14.1147 7.40277 13.9111C7.58394 13.7075 7.8294 13.5934 8.08517 13.5939C8.34093 13.5944 8.58604 13.7094 8.76658 13.9138L11.155 16.6023L17.9717 8.89803C18.1522 8.6937 18.3974 8.57862 18.6531 8.57813C18.9089 8.57763 19.1543 8.69174 19.3355 8.89537C19.5167 9.099 19.6187 9.37545 19.6191 9.66392C19.6196 9.95239 19.5184 10.2292 19.3379 10.4336V10.4336Z" fill="white"/>
</svg>
