<svg width="45" height="45" viewBox="0 0 45 45" fill="none" xmlns="http://www.w3.org/2000/svg">
<circle cx="22.5" cy="22.4453" r="22" fill="#FFEFED"/>
<g clip-path="url(#clip0_202_386)">
<path d="M29.2052 25.0213C28.1195 23.9356 26.8271 23.1318 25.4171 22.6452C26.9273 21.6051 27.9194 19.8644 27.9194 17.896C27.9194 14.7182 25.3341 12.1328 22.1562 12.1328C18.9784 12.1328 16.3931 14.7182 16.3931 17.896C16.3931 19.8644 17.3852 21.6051 18.8955 22.6452C17.4854 23.1318 16.1931 23.9356 15.1073 25.0213C13.2244 26.9042 12.1875 29.4076 12.1875 32.0703H13.7451C13.7451 27.4324 17.5183 23.6592 22.1562 23.6592C26.7942 23.6592 30.5674 27.4324 30.5674 32.0703H32.125C32.125 29.4076 31.0881 26.9042 29.2052 25.0213ZM22.1562 22.1016C19.8373 22.1016 17.9507 20.215 17.9507 17.896C17.9507 15.577 19.8373 13.6904 22.1562 13.6904C24.4752 13.6904 26.3618 15.577 26.3618 17.896C26.3618 20.215 24.4752 22.1016 22.1562 22.1016Z" fill="#D8685B"/>
</g>
<defs>
<clipPath id="clip0_202_386">
<rect width="19.9375" height="19.9375" fill="white" transform="translate(12.1875 12.1328)"/>
</clipPath>
</defs>
</svg>
