<svg width="24" height="25" viewBox="0 0 24 25" fill="none" xmlns="http://www.w3.org/2000/svg">
<path d="M23.5 12.5C23.5 19.1469 18.3322 24.5 12 24.5C5.66777 24.5 0.5 19.1469 0.5 12.5C0.5 5.85315 5.66777 0.5 12 0.5C18.3322 0.5 23.5 5.85315 23.5 12.5Z" stroke="#3A3A3A"/>
<path d="M9.6839 16.0327L12.9833 12.4808L9.7195 8.96733C9.47448 8.70356 9.47448 8.27522 9.7195 8.01033C9.96452 7.74656 10.3624 7.74656 10.6085 8.01033L14.3162 12.0018C14.5613 12.2655 14.5613 12.6939 14.3162 12.9588L10.5718 16.9897C10.3268 17.2534 9.92892 17.2534 9.68285 16.9897C9.43888 16.7248 9.43888 16.2964 9.6839 16.0327V16.0327Z" fill="#3A3A3A"/>
</svg>
