<svg width="33" height="45" viewBox="0 0 33 45" fill="none" xmlns="http://www.w3.org/2000/svg">
<path d="M16.3906 0V44.9995C16.8641 44.9995 17.2806 44.7569 17.5237 44.3896L30.0691 25.4155C31.7811 22.8267 32.7788 19.7242 32.7788 16.3882C32.7788 7.33719 25.4416 0 16.3906 0V0Z" fill="#00AD4F"/>
<path d="M17.3333 44.3896L27.7995 25.4155C29.2277 22.8267 30.0601 19.7242 30.0601 16.3882C30.0601 7.33719 23.9389 0 16.3882 0C7.33719 0 0 7.33719 0 16.3882C0 19.7242 0.997686 22.8267 2.70966 25.4155L15.2551 44.3896C15.4982 44.757 15.9146 44.9995 16.3882 44.9995C16.7832 44.9995 17.1306 44.7569 17.3333 44.3896Z" fill="#00AD4F"/>
<path d="M16.8438 4.80469V29.1142C23.5566 29.1142 28.9985 23.6722 28.9985 16.9594C28.9985 10.2466 23.5566 4.80469 16.8438 4.80469Z" fill="white"/>
<path d="M25.9912 16.9594C25.9912 10.2466 21.8986 4.80469 16.85 4.80469C10.1372 4.80469 4.69531 10.2466 4.69531 16.9594C4.69531 23.6722 10.1372 29.1142 16.85 29.1142C21.8986 29.1142 25.9912 23.6722 25.9912 16.9594Z" fill="white"/>
<path d="M22.3306 17.256C22.3306 18.1147 22.192 18.896 21.9146 19.6C21.6426 20.304 21.256 20.9093 20.7546 21.416C20.2533 21.9173 19.6533 22.3067 18.9546 22.584C18.256 22.8613 17.48 23 16.6266 23H12.3066V11.512H16.6266C17.48 11.512 18.256 11.6507 18.9546 11.928C19.6533 12.2053 20.2533 12.5973 20.7546 13.104C21.256 13.6053 21.6426 14.2107 21.9146 14.92C22.192 15.624 22.3306 16.4027 22.3306 17.256ZM20.5866 17.256C20.5866 16.5733 20.4933 15.9627 20.3066 15.424C20.12 14.88 19.8533 14.4213 19.5066 14.048C19.1653 13.6693 18.7493 13.3813 18.2586 13.184C17.7733 12.9867 17.2293 12.888 16.6266 12.888H14.0186V21.624H16.6266C17.2293 21.624 17.7733 21.5253 18.2586 21.328C18.7493 21.1307 19.1653 20.8453 19.5066 20.472C19.8533 20.0933 20.12 19.6347 20.3066 19.096C20.4933 18.5573 20.5866 17.944 20.5866 17.256Z" fill="black"/>
</svg>
