<svg width="45" height="45" viewBox="0 0 45 45" fill="none" xmlns="http://www.w3.org/2000/svg">
<circle cx="22.6289" cy="22.3828" r="22" fill="#FFF8E4"/>
<path d="M30.2687 28.8166L26.1255 32.7363C25.6848 33.1532 25.108 33.3828 24.5014 33.3828H16.6133C15.3102 33.3828 14.25 32.3226 14.25 31.0195V13.7461C14.25 12.443 15.3102 11.3828 16.6133 11.3828H28.6445C29.9476 11.3828 31.0078 12.443 31.0078 13.7461V27.0998C31.0078 27.7465 30.7384 28.3722 30.2687 28.8166ZM29.0167 28.2266H25.8086C25.6901 28.2266 25.5938 28.3229 25.5938 28.4414V31.4649L29.0167 28.2266ZM28.6445 12.6719H16.6133C16.021 12.6719 15.5391 13.1538 15.5391 13.7461V31.0195C15.5391 31.6119 16.021 32.0938 16.6133 32.0938H24.3047V28.4414C24.3047 27.6122 24.9793 26.9375 25.8086 26.9375H29.7188V13.7461C29.7188 13.1538 29.2369 12.6719 28.6445 12.6719Z" fill="#D2A122"/>
<path d="M27.2266 24.7891H17.7734C17.4175 24.7891 17.1289 24.5005 17.1289 24.1445C17.1289 23.7886 17.4175 23.5 17.7734 23.5H27.2266C27.5825 23.5 27.8711 23.7886 27.8711 24.1445C27.8711 24.5005 27.5825 24.7891 27.2266 24.7891Z" fill="#D7AA37"/>
<path d="M27.2266 21.3516H17.7734C17.4175 21.3516 17.1289 21.063 17.1289 20.707C17.1289 20.3511 17.4175 20.0625 17.7734 20.0625H27.2266C27.5825 20.0625 27.8711 20.3511 27.8711 20.707C27.8711 21.063 27.5825 21.3516 27.2266 21.3516Z" fill="#D7AA37"/>
<path d="M20.8981 17.9141H17.7734C17.4175 17.9141 17.1289 17.6255 17.1289 17.2695C17.1289 16.9136 17.4175 16.625 17.7734 16.625H20.8981C21.2541 16.625 21.5427 16.9136 21.5427 17.2695C21.5427 17.6255 21.2541 17.9141 20.8981 17.9141Z" fill="#D7AA37"/>
</svg>
