<svg width="22" height="20" viewBox="0 0 22 20" fill="none" xmlns="http://www.w3.org/2000/svg">
<path d="M1.05236 17.8984H20.0001C20.2793 17.8984 20.547 18.0093 20.7444 18.2068C20.9418 18.4042 21.0527 18.6719 21.0527 18.9511C21.0527 19.2303 20.9418 19.498 20.7444 19.6954C20.547 19.8928 20.2793 20.0037 20.0001 20.0037H1.05236C0.773182 20.0037 0.505435 19.8928 0.308025 19.6954C0.110614 19.498 -0.000288963 19.2303 -0.000288963 18.9511C-0.000288963 18.6719 0.110614 18.4042 0.308025 18.2068C0.505435 18.0093 0.773182 17.8984 1.05236 17.8984Z" fill="#5D9AD3"/>
<path d="M10.5255 0C10.8047 0 11.0724 0.110904 11.2698 0.308314C11.4672 0.505725 11.5781 0.773471 11.5781 1.05265V12.2002L15.0414 8.72648C15.2396 8.52826 15.5084 8.4169 15.7887 8.4169C16.0691 8.4169 16.3379 8.52826 16.5361 8.72648C16.7343 8.9247 16.8457 9.19354 16.8457 9.47386C16.8457 9.75418 16.7343 10.023 16.5361 10.2212L11.2729 15.4845C11.175 15.5832 11.0586 15.6615 10.9303 15.7149C10.802 15.7684 10.6645 15.7959 10.5255 15.7959C10.3865 15.7959 10.2489 15.7684 10.1207 15.7149C9.99239 15.6615 9.87596 15.5832 9.77811 15.4845L4.51485 10.2212C4.4167 10.1231 4.33885 10.0066 4.28573 9.87834C4.23261 9.75011 4.20528 9.61266 4.20528 9.47386C4.20528 9.33506 4.23261 9.19762 4.28573 9.06938C4.33885 8.94114 4.4167 8.82463 4.51485 8.72648C4.613 8.62833 4.72952 8.55048 4.85775 8.49736C4.98599 8.44424 5.12343 8.4169 5.26223 8.4169C5.40104 8.4169 5.53848 8.44424 5.66671 8.49736C5.79495 8.55048 5.91147 8.62833 6.00961 8.72648L9.47284 12.2002V1.05265C9.47284 0.773471 9.58374 0.505725 9.78115 0.308314C9.97856 0.110904 10.2463 0 10.5255 0V0Z" fill="#5D9AD3"/>
</svg>
