<svg width="16" height="12" viewBox="0 0 16 12" fill="none" xmlns="http://www.w3.org/2000/svg">
<path d="M13.0509 11.7513C12.5227 11.7519 12.009 11.5781 11.5895 11.257C11.1701 10.9359 10.8683 10.4854 10.7309 9.97531L10.6949 9.85331H1.25791C1.12424 9.85331 0.996043 9.80021 0.901524 9.70569C0.807006 9.61118 0.753906 9.48298 0.753906 9.34931C0.753906 9.21564 0.807006 9.08745 0.901524 8.99293C0.996043 8.89841 1.12424 8.84531 1.25791 8.84531H10.6959L10.7319 8.72331C10.8688 8.21302 11.1703 7.76217 11.5896 7.4407C12.0089 7.11922 12.5226 6.94509 13.0509 6.94531C13.1559 6.94563 13.2608 6.95264 13.3649 6.96631C13.9794 7.03401 14.5441 7.33625 14.9413 7.81004C15.3385 8.28383 15.5375 8.89262 15.4969 9.50953C15.4563 10.1264 15.1792 10.7039 14.7233 11.1215C14.2675 11.5392 13.668 11.7648 13.0499 11.7513H13.0509ZM13.0299 7.95131C12.6753 7.97605 12.3434 8.13475 12.1015 8.39523C11.8596 8.65571 11.7258 8.99846 11.7273 9.35393C11.7289 9.70941 11.8655 10.051 12.1097 10.3094C12.3538 10.5678 12.6871 10.7236 13.0419 10.7453C13.2254 10.7453 13.407 10.709 13.5765 10.6386C13.7459 10.5681 13.8997 10.4649 14.029 10.3348C14.1584 10.2047 14.2608 10.0503 14.3303 9.88047C14.3997 9.71066 14.435 9.52878 14.4339 9.34531C14.4348 9.16171 14.3994 8.97973 14.3298 8.80985C14.2601 8.63997 14.1576 8.48554 14.028 8.35543C13.8985 8.22532 13.7445 8.12211 13.5749 8.05173C13.4053 7.98134 13.2235 7.94518 13.0399 7.94531L13.0299 7.95131Z" fill="#00873E"/>
<path d="M8.09572 4.91438C7.57022 4.91334 7.05968 4.73935 6.6429 4.41927C6.22613 4.09919 5.92631 3.65082 5.78972 3.14338L5.75372 3.01438H1.26172C1.12911 3.01438 1.00193 2.9617 0.908165 2.86793C0.814397 2.77417 0.761719 2.64699 0.761719 2.51438C0.761719 2.38177 0.814397 2.2546 0.908165 2.16083C1.00193 2.06706 1.12911 2.01438 1.26172 2.01438H5.75372L5.78972 1.88738C5.92629 1.37943 6.22655 0.930685 6.64398 0.610659C7.06141 0.290634 7.57273 0.117188 8.09872 0.117188C8.62471 0.117188 9.13602 0.290634 9.55346 0.610659C9.97089 0.930685 10.2711 1.37943 10.4077 1.88738L10.4387 2.01438H14.9317C15.0651 2.01438 15.1931 2.06738 15.2874 2.16171C15.3817 2.25604 15.4347 2.38398 15.4347 2.51738C15.4347 2.65079 15.3817 2.77873 15.2874 2.87306C15.1931 2.96739 15.0651 3.02038 14.9317 3.02038H10.4387L10.4077 3.14538C10.2694 3.65285 9.96827 4.10083 9.55055 4.42045C9.13283 4.74006 8.62169 4.9136 8.09572 4.91438ZM8.09572 1.12438C7.81942 1.12383 7.54923 1.20563 7.31964 1.35935C7.09004 1.51306 6.91147 1.73171 6.80672 1.98738C6.72061 2.19931 6.68773 2.42911 6.71098 2.65668C6.73423 2.88425 6.81289 3.10266 6.94007 3.2928C7.06726 3.48293 7.2391 3.63901 7.44056 3.74737C7.64202 3.85573 7.86697 3.91307 8.09572 3.91438C8.27957 3.91438 8.46162 3.87817 8.63148 3.80781C8.80133 3.73746 8.95567 3.63433 9.08567 3.50433C9.21567 3.37433 9.31879 3.21999 9.38915 3.05014C9.45951 2.88028 9.49572 2.69823 9.49572 2.51438C9.49308 2.14481 9.34441 1.79128 9.08215 1.53089C8.81988 1.2705 8.4653 1.12437 8.09572 1.12438Z" fill="#00873E"/>
</svg>
