<svg width="37" height="30" viewBox="0 0 37 30" fill="none" xmlns="http://www.w3.org/2000/svg">
<path d="M35.15 16.875H1.85C1.35935 16.875 0.888795 16.6774 0.541852 16.3258C0.19491 15.9742 0 15.4972 0 15C0 14.5027 0.19491 14.0258 0.541852 13.6742C0.888795 13.3225 1.35935 13.125 1.85 13.125H35.15C35.6406 13.125 36.1113 13.3225 36.4581 13.6742C36.805 14.0258 37 14.5027 37 15C37 15.4972 36.805 15.9742 36.4581 16.3258C36.1113 16.6774 35.6406 16.875 35.15 16.875ZM35.15 3.75H1.85C1.35935 3.75 0.888795 3.55245 0.541852 3.20083C0.19491 2.84919 0 2.37229 0 1.875C0 1.37771 0.19491 0.900806 0.541852 0.549169C0.888795 0.19755 1.35935 0 1.85 0H35.15C35.6406 0 36.1113 0.19755 36.4581 0.549169C36.805 0.900806 37 1.37771 37 1.875C37 2.37229 36.805 2.84919 36.4581 3.20083C36.1113 3.55245 35.6406 3.75 35.15 3.75ZM35.15 30H1.85C1.35935 30 0.888795 29.8024 0.541852 29.4508C0.19491 29.0992 0 28.6222 0 28.125C0 27.6278 0.19491 27.1508 0.541852 26.7992C0.888795 26.4476 1.35935 26.25 1.85 26.25H35.15C35.6406 26.25 36.1113 26.4476 36.4581 26.7992C36.805 27.1508 37 27.6278 37 28.125C37 28.6222 36.805 29.0992 36.4581 29.4508C36.1113 29.8024 35.6406 30 35.15 30Z" fill="#125E66"/>
</svg>
