<svg width="44" height="45" viewBox="0 0 44 45" fill="none" xmlns="http://www.w3.org/2000/svg">
<circle cx="22" cy="22.9375" r="22" fill="#E0FBFE"/>
<path d="M22.0003 13.3125C17.7397 13.3125 14.2734 16.7788 14.2734 21.0394C14.2734 26.363 21.2108 34.728 21.5062 35.0816C21.7632 35.3893 22.2371 35.3897 22.4944 35.0816C22.7898 34.728 29.7272 26.363 29.7272 21.0394C29.7272 16.7788 26.261 13.3125 22.0003 13.3125ZM22.0003 33.6407C20.4146 31.6257 15.5612 25.1242 15.5612 21.0394C15.5612 17.4889 18.4498 14.6003 22.0003 14.6003C25.5508 14.6003 28.4394 17.4889 28.4394 21.0394C28.4394 25.1242 23.5861 31.6257 22.0003 33.6407Z" fill="#33ACBA"/>
<path d="M26.5082 20.398H25.8103C25.5382 18.7826 24.2602 17.5046 22.6448 17.2324V16.5345C22.6448 16.1789 22.3565 15.8906 22.0009 15.8906C21.6453 15.8906 21.357 16.1789 21.357 16.5345V17.2324C19.7416 17.5046 18.4635 18.7826 18.1914 20.398H17.4935C17.1379 20.398 16.8496 20.6863 16.8496 21.0419C16.8496 21.3975 17.1379 21.6858 17.4935 21.6858H18.1914C18.4635 23.3012 19.7416 24.5792 21.357 24.8514V25.5492C21.357 25.9048 21.6453 26.1931 22.0009 26.1931C22.3565 26.1931 22.6448 25.9048 22.6448 25.5492V24.8514C24.2602 24.5792 25.5382 23.3011 25.8103 21.6858H26.5082C26.8638 21.6858 27.1521 21.3975 27.1521 21.0419C27.1521 20.6863 26.8639 20.398 26.5082 20.398ZM22.0009 23.6175C20.5807 23.6175 19.4252 22.4621 19.4252 21.0419C19.4252 19.6217 20.5807 18.4662 22.0009 18.4662C23.4211 18.4662 24.5765 19.6217 24.5765 21.0419C24.5765 22.4621 23.4211 23.6175 22.0009 23.6175Z" fill="#33ACBA"/>
</svg>
