<svg width="13" height="13" viewBox="0 0 13 13" fill="none" xmlns="http://www.w3.org/2000/svg">
<g clip-path="url(#clip0_666_16419)">
<path d="M6.45469 11.8697H1.96962C1.69453 11.8697 1.47129 11.6465 1.47129 11.3714V2.40128C1.47129 2.1262 1.69455 1.90295 1.96962 1.90295H6.45469C6.73027 1.90295 6.95302 1.6802 6.95302 1.40462C6.95302 1.12905 6.73027 0.90625 6.45469 0.90625H1.96962C1.14537 0.90625 0.474609 1.57703 0.474609 2.40128V11.3714C0.474609 12.1956 1.14537 12.8664 1.96962 12.8664H6.45469C6.73027 12.8664 6.95302 12.6436 6.95302 12.3681C6.95302 12.0925 6.73027 11.8697 6.45469 11.8697Z" fill="black"/>
<path d="M12.3257 6.52413L9.29581 3.53409C9.10046 3.34073 8.78452 3.34324 8.59116 3.53909C8.3978 3.73493 8.3998 4.05037 8.59616 4.24373L10.7614 6.3806H4.95927C4.68369 6.3806 4.46094 6.60335 4.46094 6.87893C4.46094 7.15451 4.68369 7.37728 4.95927 7.37728H10.7614L8.59616 9.51415C8.39982 9.70751 8.39832 10.023 8.59116 10.2188C8.68883 10.3175 8.81741 10.3673 8.94598 10.3673C9.07257 10.3673 9.19913 10.3195 9.29581 10.2238L12.3257 7.23373C12.4204 7.14005 12.4742 7.01245 12.4742 6.87891C12.4742 6.74541 12.4209 6.61833 12.3257 6.52413Z" fill="black"/>
</g>
<defs>
<clipPath id="clip0_666_16419">
<rect width="12" height="12" fill="white" transform="translate(0.474609 0.882812)"/>
</clipPath>
</defs>
</svg>
