<svg width="119" height="36" viewBox="0 0 119 36" fill="none" xmlns="http://www.w3.org/2000/svg">
<path d="M45.8615 4.57999L53.123 8.77412L57.2976 6.36068C53.4394 0.246651 45.4067 -1.77122 39.0951 1.88895C37.1364 3.01688 35.5535 4.57999 34.4258 6.36068L38.6003 8.77412L45.8615 4.57999Z" fill="#6BCCD1"/>
<path d="M53.6776 18.1311L46.416 22.3256V27.1533C48.5331 27.0741 50.6702 26.4805 52.6288 25.3526C58.9404 21.712 61.2155 13.7385 57.8521 7.32812L53.6776 9.74198V18.1311Z" fill="#00AD4F"/>
<path d="M45.2885 22.3241V27.1518C40.8172 26.9538 36.5235 24.5596 34.1296 20.385C31.7158 16.2105 31.7752 11.3036 33.8526 7.32664L38.0274 9.74049V18.1296L45.2885 22.3241ZM68.2591 7.08946C68.2591 6.3771 68.8331 5.78354 69.565 5.78354H74.7687C79.1212 5.78354 82.643 9.36452 82.5838 13.7175C82.5242 18.0108 78.9432 21.4138 74.6499 21.4138H68.2591V7.08946ZM74.6103 26.637C81.7726 26.637 87.7279 20.9194 87.8071 13.737C87.8863 6.4959 82.0098 0.57986 74.7883 0.57986H63.0558V26.637H74.6103ZM112.103 5.78354V0.57986H91.2497V11.0068V16.2105V26.637H112.084V21.4338H97.7589C97.0469 21.4338 96.4533 20.8598 96.4533 20.1278V16.2105H110.481V11.0068H96.4533V5.80313H112.103V5.78354ZM21.1109 2.02417L14.3245 15.5969L7.53817 2.02417C7.10292 1.13383 6.19278 0.57986 5.20352 0.57986H0V26.637H5.20352V9.00854L12.9989 24.5992C13.2165 25.0347 13.6716 25.3115 14.1662 25.3115H14.4828C14.9774 25.3115 15.4325 25.0347 15.6501 24.5992L23.4455 9.00854V26.637H28.6491V0.57986H23.4455C22.4563 0.57986 21.5461 1.13383 21.1109 2.02417ZM52.9256 31.4848C52.9256 31.4251 52.9056 31.4056 52.8464 31.4056H49.8986C49.839 31.4056 49.8194 31.4251 49.8194 31.4848V31.7219C49.8194 31.7815 49.839 31.8011 49.8986 31.8011H51.0858C51.1053 31.8011 51.125 31.8211 51.125 31.8407V35.8177C51.125 35.8769 51.145 35.8969 51.2041 35.8969H51.5009C51.5605 35.8969 51.5801 35.8769 51.5801 35.8177V31.8407C51.5801 31.8211 51.6001 31.8011 51.6197 31.8011H52.8464C52.9056 31.8011 52.9256 31.7815 52.9256 31.7219V31.4848ZM55.1019 31.8211C55.1019 31.8011 55.1219 31.7815 55.1415 31.7815H56.3286C56.5858 31.7815 56.7838 31.8607 56.9422 32.0187C57.1002 32.1771 57.1794 32.3751 57.1794 32.6323C57.1794 32.8895 57.1002 33.087 56.9422 33.2258C56.7838 33.3838 56.5858 33.463 56.3286 33.463H55.1415C55.1219 33.463 55.1019 33.4434 55.1019 33.4234V31.8211ZM57.1994 35.8373C57.219 35.8769 57.2586 35.8969 57.2982 35.8969H57.5949C57.6541 35.8969 57.6741 35.8769 57.6741 35.8373C57.6741 35.8373 57.6741 35.8177 57.6541 35.7977L56.7046 33.8194C56.7046 33.7994 56.7046 33.7798 56.7242 33.7798C57.0014 33.7202 57.219 33.5818 57.3774 33.3642C57.5358 33.1466 57.6145 32.9091 57.6145 32.5927C57.6145 32.2167 57.4962 31.9199 57.2782 31.7023C57.041 31.4848 56.7442 31.366 56.3878 31.366H54.7459C54.6863 31.366 54.6667 31.3856 54.6667 31.4452V35.7781C54.6667 35.8373 54.6863 35.8573 54.7459 35.8573H55.0427C55.1019 35.8573 55.1219 35.8373 55.1219 35.7781V33.8194C55.1219 33.7994 55.1415 33.7798 55.1615 33.7798H56.2298C56.2494 33.7798 56.2494 33.7798 56.2694 33.7994L57.1994 35.8373ZM59.9492 34.6502C59.9296 34.6502 59.9096 34.6306 59.9296 34.6105L60.7608 31.9791C60.7608 31.9595 60.7803 31.9595 60.7803 31.9595C60.7803 31.9595 60.7999 31.9595 60.7999 31.9791L61.6311 34.6105C61.6311 34.6306 61.6311 34.6502 61.6115 34.6502H59.9492ZM62.0267 35.8373C62.0467 35.8769 62.0663 35.9165 62.1259 35.9165H62.4422C62.4622 35.9165 62.4818 35.9165 62.5019 35.8969C62.5214 35.8769 62.5214 35.8769 62.5214 35.8573C62.5214 35.8373 62.5214 35.8373 62.5214 35.8177L61.0967 31.4848C61.0771 31.4452 61.0575 31.4056 60.9979 31.4056H60.5824C60.5428 31.4056 60.5032 31.4251 60.4836 31.4848L59.0589 35.8177C59.0589 35.8573 59.0589 35.8769 59.0589 35.8969C59.0789 35.9165 59.0985 35.9165 59.1185 35.9165H59.4348C59.4744 35.9165 59.514 35.8969 59.534 35.8373L59.7912 35.0461C59.7912 35.0261 59.8108 35.0261 59.8308 35.0261H61.7499C61.7695 35.0261 61.7695 35.0261 61.7895 35.0461L62.0267 35.8373ZM64.1637 35.8177C64.1637 35.8769 64.1833 35.8969 64.2429 35.8969H64.5397C64.5989 35.8969 64.6185 35.8769 64.6185 35.8177V32.3355C64.6185 32.3155 64.6185 32.3155 64.6385 32.3155C64.6385 32.3155 64.6581 32.3155 64.6581 32.3355L66.8348 35.8573C66.8544 35.8969 66.894 35.9165 66.9336 35.9165H67.2303C67.2895 35.9165 67.3095 35.8969 67.3095 35.8373V31.5043C67.3095 31.4452 67.2895 31.4252 67.2303 31.4252H66.914C66.8544 31.4252 66.8348 31.4452 66.8348 31.5043V34.9669C66.8348 34.9865 66.8348 34.9865 66.8148 34.9865C66.8148 34.9865 66.7952 34.9865 66.7952 34.9669L64.6385 31.4647C64.6185 31.4252 64.5793 31.4056 64.5397 31.4056H64.2429C64.1833 31.4056 64.1637 31.4251 64.1637 31.4848V35.8177ZM69.8222 35.7977C70.0598 35.8969 70.3366 35.9365 70.6333 35.9365C71.1081 35.9365 71.4645 35.8373 71.7413 35.6197C71.9985 35.4021 72.1373 35.1249 72.1373 34.7689C72.1373 34.5314 72.0776 34.3338 71.9589 34.1754C71.8405 34.017 71.6821 33.8786 71.5041 33.7598C71.3061 33.641 71.0489 33.5226 70.7521 33.4038C70.4553 33.285 70.2178 33.1862 70.0794 33.107C69.941 33.0279 69.8222 32.9487 69.743 32.8499C69.6638 32.7511 69.6242 32.6123 69.6242 32.4739C69.6242 32.2363 69.7034 32.0583 69.8618 31.9395C70.0202 31.8211 70.2574 31.7615 70.5541 31.7615C70.9105 31.7615 71.1873 31.8407 71.3653 31.9991C71.5437 32.1575 71.6621 32.3551 71.6621 32.6123V32.7115C71.6621 32.7707 71.6821 32.7903 71.7413 32.7903H72.0185C72.0776 32.7903 72.0976 32.7707 72.0976 32.7115V32.5927C72.0976 32.2167 71.9589 31.9199 71.6821 31.7023C71.4049 31.4848 71.0293 31.366 70.5541 31.366C70.119 31.366 69.763 31.4648 69.5254 31.6627C69.2682 31.8607 69.1494 32.1375 69.1494 32.4935C69.1494 32.7311 69.209 32.9091 69.3078 33.0674C69.4066 33.2258 69.565 33.3442 69.743 33.4434C69.921 33.5422 70.1782 33.661 70.4949 33.7798C70.7917 33.8986 71.0293 34.017 71.1873 34.1162C71.3457 34.215 71.4645 34.3138 71.5437 34.413C71.6229 34.5118 71.6621 34.6501 71.6621 34.7889C71.6621 35.0261 71.5833 35.2041 71.4049 35.3429C71.2269 35.4813 70.9897 35.5605 70.6533 35.5605C70.297 35.5605 70.0202 35.4813 69.8222 35.3229C69.6242 35.1645 69.5058 34.9669 69.5058 34.7293V34.571C69.5058 34.5118 69.4858 34.4922 69.4266 34.4922H69.1494C69.0902 34.4922 69.0702 34.5118 69.0702 34.571V34.7493C69.0702 34.9865 69.1298 35.2041 69.2682 35.3825C69.4066 35.5605 69.5846 35.6989 69.8222 35.7977ZM76.213 33.285C76.0546 33.4434 75.8566 33.5226 75.5994 33.5226H74.3927C74.3727 33.5226 74.3531 33.5026 74.3531 33.483V31.8211C74.3531 31.8011 74.3727 31.7815 74.3927 31.7815H75.5994C75.8566 31.7815 76.0546 31.8607 76.213 32.0187C76.371 32.1771 76.4502 32.3947 76.4502 32.6519C76.4502 32.9091 76.371 33.1266 76.213 33.285ZM76.569 31.7419C76.3314 31.5043 76.0346 31.3856 75.659 31.3856H73.9771C73.9179 31.3856 73.8979 31.4056 73.8979 31.4647V35.7977C73.8979 35.8573 73.9179 35.8769 73.9771 35.8769H74.2739C74.3331 35.8769 74.3531 35.8573 74.3531 35.7977V33.9182C74.3531 33.8986 74.3727 33.8786 74.3927 33.8786H75.639C76.015 33.8786 76.3314 33.7598 76.569 33.5422C76.8066 33.3246 76.9249 33.0083 76.9249 32.6323C76.9053 32.2759 76.7866 31.9791 76.569 31.7419ZM80.7635 35.2637C80.5655 35.4613 80.3083 35.5605 79.972 35.5605C79.6556 35.5605 79.3984 35.4613 79.2004 35.2637C79.0024 35.0657 78.9036 34.8085 78.9036 34.4722V32.8299C78.9036 32.5135 79.0024 32.2363 79.2004 32.0387C79.3984 31.8407 79.6556 31.7419 79.972 31.7419C80.2887 31.7419 80.5655 31.8407 80.7635 32.0387C80.9615 32.2363 81.0603 32.4935 81.0603 32.8299V34.4722C81.0603 34.8085 80.9615 35.0657 80.7635 35.2637ZM79.1608 35.7581C79.3984 35.8769 79.6556 35.9365 79.972 35.9365C80.2687 35.9365 80.5459 35.8769 80.7831 35.7581C81.0207 35.6397 81.1987 35.4613 81.3175 35.2241C81.4363 35.0065 81.5155 34.7293 81.5155 34.4326V32.8103C81.5155 32.5135 81.4559 32.2563 81.3175 32.0187C81.1987 31.8011 81.0207 31.6231 80.7831 31.4848C80.5459 31.366 80.2887 31.3064 79.972 31.3064C79.6752 31.3064 79.3984 31.366 79.1608 31.4848C78.9236 31.6031 78.7452 31.7815 78.6268 32.0187C78.5081 32.2363 78.4289 32.5135 78.4289 32.8103V34.4326C78.4289 34.7293 78.488 34.9865 78.6268 35.2241C78.7652 35.4613 78.9432 35.6397 79.1608 35.7581ZM83.8697 31.8211C83.8697 31.8011 83.8897 31.7815 83.9093 31.7815H85.0964C85.3536 31.7815 85.5516 31.8607 85.7096 32.0187C85.868 32.1771 85.9472 32.3751 85.9472 32.6323C85.9472 32.8895 85.868 33.087 85.7096 33.2258C85.5516 33.3838 85.3536 33.463 85.0964 33.463H83.9093C83.8897 33.463 83.8697 33.4434 83.8697 33.4234V31.8211ZM85.9672 35.8373C85.9868 35.8769 86.0264 35.8969 86.066 35.8969H86.3628C86.422 35.8969 86.442 35.8769 86.442 35.8373C86.442 35.8373 86.442 35.8177 86.422 35.7977L85.4724 33.8194C85.4724 33.7994 85.4724 33.7798 85.492 33.7798C85.7692 33.7202 85.9868 33.5818 86.1452 33.3642C86.3032 33.1466 86.3824 32.9091 86.3824 32.5927C86.3824 32.2167 86.264 31.9199 86.046 31.7023C85.8088 31.4848 85.512 31.366 85.1556 31.366H83.5137C83.4541 31.366 83.4345 31.3856 83.4345 31.4452V35.7781C83.4345 35.8373 83.4541 35.8573 83.5137 35.8573H83.8105C83.8697 35.8573 83.8897 35.8373 83.8897 35.7781V33.8194C83.8897 33.7994 83.9093 33.7798 83.9293 33.7798H84.9977C85.0172 33.7798 85.0172 33.7798 85.0372 33.7994L85.9672 35.8373ZM90.9725 31.4848C90.9725 31.4251 90.9529 31.4056 90.8937 31.4056H87.9455C87.8863 31.4056 87.8663 31.4251 87.8663 31.4848V31.7219C87.8663 31.7815 87.8863 31.8011 87.9455 31.8011H89.1326C89.1526 31.8011 89.1722 31.8211 89.1722 31.8407V35.8177C89.1722 35.8769 89.1922 35.8969 89.2514 35.8969H89.5482C89.6074 35.8969 89.6274 35.8769 89.6274 35.8177V31.8407C89.6274 31.8211 89.647 31.8011 89.667 31.8011H90.8937C90.9529 31.8011 90.9725 31.7815 90.9725 31.7219V31.4848ZM93.0303 34.6502C93.0108 34.6502 92.9908 34.6306 93.0108 34.6105L93.8415 31.9791C93.8415 31.9595 93.8615 31.9595 93.8615 31.9595C93.8615 31.9595 93.8811 31.9595 93.8811 31.9791L94.7122 34.6105C94.7122 34.6306 94.7122 34.6502 94.6922 34.6502H93.0303ZM95.0878 35.8373C95.1078 35.8769 95.1274 35.9165 95.187 35.9165H95.5034C95.5234 35.9165 95.543 35.9165 95.563 35.8969C95.5826 35.8769 95.5826 35.8769 95.5826 35.8573C95.5826 35.8373 95.5826 35.8373 95.5826 35.8177L94.1583 31.4848C94.1383 31.4452 94.1187 31.4056 94.0591 31.4056H93.6435C93.6043 31.4056 93.5647 31.4251 93.5447 31.4848L92.1204 35.8177C92.1204 35.8573 92.1204 35.8769 92.1204 35.8969C92.14 35.9165 92.1596 35.9165 92.1796 35.9165H92.496C92.5356 35.9165 92.5752 35.8969 92.5952 35.8373L92.8524 35.0461C92.8524 35.0261 92.872 35.0261 92.892 35.0261H94.811C94.8306 35.0261 94.8306 35.0261 94.8506 35.0461L95.0878 35.8373ZM99.9155 31.4848C99.9155 31.4251 99.8959 31.4056 99.8363 31.4056H96.8885C96.8293 31.4056 96.8093 31.4251 96.8093 31.4848V31.7219C96.8093 31.7815 96.8293 31.8011 96.8885 31.8011H98.0756C98.0952 31.8011 98.1152 31.8211 98.1152 31.8407V35.8177C98.1152 35.8769 98.1348 35.8969 98.1944 35.8969H98.4912C98.5504 35.8969 98.5704 35.8769 98.5704 35.8177V31.8407C98.5704 31.8211 98.59 31.8011 98.6096 31.8011H99.8363C99.8959 31.8011 99.9155 31.7815 99.9155 31.7219V31.4848ZM101.637 35.8177C101.637 35.8769 101.657 35.8969 101.716 35.8969H102.013C102.072 35.8969 102.092 35.8769 102.092 35.8177V31.4848C102.092 31.4251 102.072 31.4056 102.013 31.4056H101.716C101.657 31.4056 101.637 31.4251 101.637 31.4848V35.8177ZM106.326 35.2637C106.128 35.4613 105.871 35.5605 105.535 35.5605C105.218 35.5605 104.961 35.4613 104.763 35.2637C104.565 35.0657 104.466 34.8085 104.466 34.4722V32.8299C104.466 32.5135 104.565 32.2363 104.763 32.0387C104.961 31.8407 105.218 31.7419 105.535 31.7419C105.851 31.7419 106.128 31.8407 106.326 32.0387C106.524 32.2363 106.623 32.4935 106.623 32.8299V34.4722C106.623 34.8085 106.524 35.0657 106.326 35.2637ZM104.724 35.7581C104.961 35.8769 105.218 35.9365 105.535 35.9365C105.832 35.9365 106.108 35.8769 106.346 35.7581C106.583 35.6397 106.762 35.4613 106.88 35.2241C106.999 35.0065 107.078 34.7293 107.078 34.4326V32.8103C107.078 32.5135 107.019 32.2563 106.88 32.0187C106.762 31.8011 106.583 31.6231 106.346 31.4848C106.108 31.366 105.851 31.3064 105.535 31.3064C105.238 31.3064 104.961 31.366 104.724 31.4848C104.486 31.6031 104.308 31.7815 104.189 32.0187C104.07 32.2363 103.991 32.5135 103.991 32.8103V34.4326C103.991 34.7293 104.051 34.9865 104.189 35.2241C104.328 35.4613 104.506 35.6397 104.724 35.7581ZM108.977 35.8177C108.977 35.8769 108.997 35.8969 109.057 35.8969H109.353C109.413 35.8969 109.433 35.8769 109.433 35.8177V32.3355C109.433 32.3155 109.433 32.3155 109.452 32.3155C109.452 32.3155 109.472 32.3155 109.472 32.3355L111.648 35.8573C111.668 35.8969 111.708 35.9165 111.747 35.9165H112.044C112.103 35.9165 112.123 35.8969 112.123 35.8373V31.5043C112.123 31.4452 112.103 31.4252 112.044 31.4252H111.747C111.688 31.4252 111.668 31.4452 111.668 31.5043V34.9669C111.668 34.9865 111.668 34.9865 111.648 34.9865C111.648 34.9865 111.628 34.9865 111.628 34.9669L109.452 31.4452C109.433 31.4056 109.393 31.3856 109.353 31.3856H109.057C108.997 31.3856 108.977 31.4056 108.977 31.4647V35.8177ZM116.14 2.49935V1.609H116.515C116.614 1.609 116.694 1.609 116.772 1.6286C116.852 1.6486 116.891 1.6682 116.931 1.70779C116.97 1.74739 117.01 1.78699 117.03 1.84618C117.05 1.90578 117.05 1.96498 117.05 2.04417C117.05 2.20256 117.01 2.30136 116.911 2.38055C116.832 2.45975 116.674 2.49935 116.456 2.49935H116.14ZM115.685 1.25262V3.86446H116.14V2.83573H116.377C116.437 2.83573 116.456 2.83573 116.496 2.85532C116.515 2.87492 116.535 2.89492 116.555 2.91452L117.148 3.80486C117.188 3.84446 117.228 3.88406 117.287 3.88406H117.722L117.05 2.89492C117.03 2.85532 117.01 2.81572 116.99 2.79613C116.97 2.77613 116.931 2.73653 116.911 2.71693C117.109 2.67733 117.267 2.57814 117.386 2.45975C117.485 2.32095 117.544 2.18256 117.544 1.98457C117.544 1.74739 117.465 1.56941 117.307 1.45061C117.148 1.33182 116.891 1.27262 116.555 1.27262H115.685V1.25262ZM116.555 4.45802C116.377 4.45802 116.219 4.43802 116.061 4.39842C115.902 4.35883 115.764 4.29963 115.625 4.22044C115.487 4.14124 115.368 4.04245 115.249 3.92365C115.131 3.80486 115.051 3.68647 114.953 3.54767C114.873 3.40929 114.814 3.25089 114.774 3.09291C114.735 2.93452 114.715 2.75653 114.715 2.59814C114.715 2.42015 114.735 2.26176 114.774 2.08377C114.814 1.92538 114.873 1.76699 114.953 1.6286C115.031 1.49021 115.131 1.35182 115.249 1.25262C115.368 1.13383 115.487 1.03503 115.625 0.955836C115.764 0.87664 115.902 0.817447 116.061 0.758254C116.219 0.718656 116.377 0.698654 116.555 0.698654C116.812 0.698654 117.05 0.738251 117.287 0.837042C117.505 0.936241 117.702 1.07463 117.881 1.23302C118.039 1.41101 118.178 1.609 118.276 1.82659C118.375 2.06377 118.415 2.30136 118.415 2.55854C118.415 2.73653 118.395 2.89492 118.356 3.05331C118.316 3.2113 118.256 3.36969 118.178 3.50808C118.098 3.64687 117.999 3.76526 117.881 3.88406C117.762 4.00285 117.643 4.10164 117.505 4.18084C117.366 4.26003 117.228 4.31923 117.07 4.35883C116.891 4.43802 116.733 4.45802 116.555 4.45802ZM116.555 0.421875C116.357 0.421875 116.159 0.44147 115.981 0.501071C115.803 0.560264 115.625 0.619456 115.467 0.718656C115.309 0.817447 115.17 0.91624 115.031 1.05504C114.893 1.19343 114.794 1.33182 114.695 1.49021C114.596 1.6486 114.537 1.82659 114.477 2.00457C114.418 2.18256 114.399 2.38055 114.399 2.57813C114.399 2.77612 114.418 2.97412 114.477 3.1521C114.537 3.33009 114.596 3.50808 114.695 3.66647C114.794 3.82486 114.893 3.96325 115.031 4.10164C115.17 4.24044 115.309 4.33923 115.467 4.43802C115.625 4.53722 115.803 4.59641 115.981 4.65561C116.159 4.71521 116.357 4.7348 116.555 4.7348C116.753 4.7348 116.951 4.71521 117.129 4.65561C117.307 4.59641 117.485 4.53722 117.643 4.43802C117.802 4.33923 117.94 4.24044 118.078 4.10164C118.217 3.96325 118.316 3.82486 118.415 3.66647C118.514 3.50808 118.573 3.33009 118.632 3.1521C118.692 2.97412 118.712 2.77612 118.712 2.57813C118.712 2.38055 118.692 2.18256 118.632 2.00457C118.573 1.82659 118.514 1.6486 118.415 1.49021C118.316 1.33182 118.217 1.19343 118.078 1.05504C117.94 0.91624 117.802 0.817447 117.643 0.718656C117.485 0.619456 117.307 0.560264 117.129 0.501071C116.951 0.461473 116.753 0.421875 116.555 0.421875Z" fill="#125E66"/>
</svg>
