<svg width="189" height="59" viewBox="0 0 189 59" fill="none" xmlns="http://www.w3.org/2000/svg">
<path d="M73.0172 8.16883L84.5783 14.8463L91.2246 11.0039C85.082 1.26975 72.2932 -1.94289 62.2445 3.88444C59.1261 5.68022 56.606 8.16883 54.8105 11.0039L61.4568 14.8463L73.0172 8.16883Z" fill="#6BCCD1"/>
<path d="M85.4595 29.7462L73.8984 36.4243V44.1104C77.269 43.9843 80.6714 43.0393 83.7898 41.2436C93.8385 35.4474 97.4606 22.7528 92.1058 12.5469L85.4595 16.39V29.7462Z" fill="#00AD4F"/>
<path d="M72.1036 36.4251V44.1113C64.9848 43.7961 58.1488 39.9842 54.3376 33.3379C50.4945 26.6917 50.589 18.8794 53.8965 12.5477L60.5432 16.3908V29.747L72.1036 36.4251ZM108.675 12.1701C108.675 11.036 109.589 10.091 110.754 10.091H119.039C125.968 10.091 131.575 15.7922 131.481 22.7225C131.386 29.5579 125.685 34.9758 118.85 34.9758H108.675V12.1701ZM118.787 43.2917C130.19 43.2917 139.671 34.1887 139.797 22.7537C139.923 11.2251 130.567 1.80621 119.07 1.80621H100.391V43.2917H118.787ZM178.479 10.091V1.80621H145.278V18.4069V26.6917V43.2917H178.448V35.0076H155.641C154.508 35.0076 153.563 34.0938 153.563 32.9285V26.6917H175.896V18.4069H153.563V10.1222H178.479V10.091ZM33.6105 4.10569L22.806 25.7148L12.0015 4.10569C11.3085 2.68818 9.85948 1.80621 8.28449 1.80621H0V43.2917H8.28449V15.2255L20.6955 40.0472C21.042 40.7407 21.7665 41.1814 22.554 41.1814H23.058C23.8455 41.1814 24.57 40.7407 24.9165 40.0472L37.3275 15.2255V43.2917H45.612V1.80621H37.3275C35.7525 1.80621 34.3035 2.68818 33.6105 4.10569ZM84.2626 51.0097C84.2626 50.9148 84.2308 50.8836 84.1365 50.8836H79.4433C79.3484 50.8836 79.3172 50.9148 79.3172 51.0097V51.3873C79.3172 51.4822 79.3484 51.5134 79.4433 51.5134H81.3333C81.3645 51.5134 81.3957 51.5453 81.3957 51.5765V57.9081C81.3957 58.0024 81.4276 58.0342 81.5218 58.0342H81.9943C82.0892 58.0342 82.1204 58.0024 82.1204 57.9081V51.5765C82.1204 51.5453 82.1523 51.5134 82.1835 51.5134H84.1365C84.2308 51.5134 84.2626 51.4822 84.2626 51.3873V51.0097ZM87.7274 51.5453C87.7274 51.5134 87.7593 51.4822 87.7905 51.4822H89.6805C90.0899 51.4822 90.4052 51.6083 90.6573 51.8598C90.9089 52.112 91.035 52.4272 91.035 52.8367C91.035 53.2461 90.9089 53.5607 90.6573 53.7817C90.4052 54.0332 90.0899 54.1593 89.6805 54.1593H87.7905C87.7593 54.1593 87.7274 54.1281 87.7274 54.0963V51.5453ZM91.0668 57.9393C91.098 58.0024 91.161 58.0342 91.2241 58.0342H91.6966C91.7908 58.0342 91.8227 58.0024 91.8227 57.9393C91.8227 57.9393 91.8227 57.9081 91.7908 57.8763L90.2791 54.7267C90.2791 54.6949 90.2791 54.6637 90.3103 54.6637C90.7516 54.5688 91.098 54.3484 91.3502 54.002C91.6023 53.6556 91.7278 53.2773 91.7278 52.7736C91.7278 52.1751 91.5393 51.7025 91.1922 51.3561C90.8146 51.0097 90.3421 50.8206 89.7747 50.8206H87.1607C87.0658 50.8206 87.0346 50.8518 87.0346 50.9467V57.8451C87.0346 57.9393 87.0658 57.9712 87.1607 57.9712H87.6332C87.7274 57.9712 87.7593 57.9393 87.7593 57.8451V54.7267C87.7593 54.6949 87.7905 54.6637 87.8223 54.6637H89.5232C89.5544 54.6637 89.5544 54.6637 89.5863 54.6949L91.0668 57.9393ZM95.4448 56.0493C95.4136 56.0493 95.3817 56.0181 95.4136 55.9863L96.7369 51.7968C96.7369 51.7656 96.7681 51.7656 96.7681 51.7656C96.7681 51.7656 96.7992 51.7656 96.7992 51.7968L98.1225 55.9863C98.1225 56.0181 98.1225 56.0493 98.0913 56.0493H95.4448ZM98.7523 57.9393C98.7842 58.0024 98.8154 58.0654 98.9102 58.0654H99.4139C99.4458 58.0654 99.477 58.0654 99.5088 58.0342C99.54 58.0024 99.54 58.0024 99.54 57.9712C99.54 57.9393 99.54 57.9393 99.54 57.9081L97.2718 51.0097C97.2406 50.9467 97.2094 50.8836 97.1145 50.8836H96.4528C96.3898 50.8836 96.3268 50.9148 96.2956 51.0097L94.0273 57.9081C94.0273 57.9712 94.0273 58.0024 94.0273 58.0342C94.0591 58.0654 94.0903 58.0654 94.1222 58.0654H94.6259C94.6889 58.0654 94.7519 58.0342 94.7838 57.9393L95.1933 56.6798C95.1933 56.6479 95.2245 56.6479 95.2563 56.6479H98.3117C98.3428 56.6479 98.3428 56.6479 98.3747 56.6798L98.7523 57.9393ZM102.155 57.9081C102.155 58.0024 102.186 58.0342 102.281 58.0342H102.753C102.848 58.0342 102.879 58.0024 102.879 57.9081V52.3642C102.879 52.3323 102.879 52.3323 102.911 52.3323C102.911 52.3323 102.942 52.3323 102.942 52.3642L106.407 57.9712C106.438 58.0342 106.502 58.0654 106.565 58.0654H107.037C107.131 58.0654 107.163 58.0342 107.163 57.9393V51.0409C107.163 50.9467 107.131 50.9148 107.037 50.9148H106.533C106.438 50.9148 106.407 50.9467 106.407 51.0409V56.5537C106.407 56.5849 106.407 56.5849 106.375 56.5849C106.375 56.5849 106.344 56.5849 106.344 56.5537L102.911 50.9779C102.879 50.9148 102.816 50.8836 102.753 50.8836H102.281C102.186 50.8836 102.155 50.9148 102.155 51.0097V57.9081ZM111.164 57.8763C111.542 58.0342 111.982 58.0973 112.455 58.0973C113.211 58.0973 113.778 57.9393 114.219 57.5929C114.628 57.2465 114.849 56.8052 114.849 56.2385C114.849 55.8602 114.754 55.5456 114.565 55.2934C114.377 55.0413 114.125 54.8209 113.841 54.6318C113.526 54.4427 113.117 54.2542 112.644 54.0651C112.172 53.8759 111.793 53.7187 111.573 53.5926C111.353 53.4665 111.164 53.3404 111.037 53.1831C110.911 53.0258 110.848 52.8048 110.848 52.5845C110.848 52.2062 110.974 51.9229 111.227 51.7337C111.479 51.5453 111.856 51.4504 112.329 51.4504C112.896 51.4504 113.337 51.5765 113.62 51.8286C113.904 52.0808 114.093 52.3954 114.093 52.8048V52.9628C114.093 53.057 114.125 53.0882 114.219 53.0882H114.66C114.754 53.0882 114.786 53.057 114.786 52.9628V52.7736C114.786 52.1751 114.565 51.7025 114.125 51.3561C113.683 51.0097 113.085 50.8206 112.329 50.8206C111.636 50.8206 111.069 50.9779 110.691 51.2931C110.282 51.6083 110.092 52.049 110.092 52.6157C110.092 52.994 110.187 53.2773 110.345 53.5295C110.502 53.7817 110.754 53.9702 111.037 54.1281C111.321 54.2854 111.73 54.4745 112.235 54.6637C112.707 54.8528 113.085 55.0413 113.337 55.1992C113.589 55.3565 113.778 55.5138 113.904 55.6717C114.03 55.829 114.093 56.0493 114.093 56.2703C114.093 56.6479 113.967 56.9313 113.683 57.1523C113.4 57.3726 113.022 57.4987 112.487 57.4987C111.919 57.4987 111.479 57.3726 111.164 57.1204C110.848 56.8682 110.66 56.5537 110.66 56.1754V55.9232C110.66 55.829 110.628 55.7978 110.534 55.7978H110.092C109.998 55.7978 109.966 55.829 109.966 55.9232V56.2073C109.966 56.5849 110.061 56.9313 110.282 57.2153C110.502 57.4987 110.785 57.719 111.164 57.8763ZM121.338 53.8759C121.086 54.1281 120.771 54.2542 120.361 54.2542H118.44C118.408 54.2542 118.377 54.2224 118.377 54.1912V51.5453C118.377 51.5134 118.408 51.4822 118.44 51.4822H120.361C120.771 51.4822 121.086 51.6083 121.338 51.8598C121.59 52.112 121.716 52.4584 121.716 52.8679C121.716 53.2773 121.59 53.6238 121.338 53.8759ZM121.905 51.4192C121.527 51.0409 121.054 50.8518 120.456 50.8518H117.779C117.684 50.8518 117.652 50.8836 117.652 50.9779V57.8763C117.652 57.9712 117.684 58.0024 117.779 58.0024H118.251C118.345 58.0024 118.377 57.9712 118.377 57.8763V54.884C118.377 54.8528 118.408 54.8209 118.44 54.8209H120.424C121.023 54.8209 121.527 54.6318 121.905 54.2854C122.283 53.939 122.472 53.4353 122.472 52.8367C122.441 52.2693 122.251 51.7968 121.905 51.4192ZM128.583 57.0262C128.268 57.3408 127.858 57.4987 127.323 57.4987C126.819 57.4987 126.41 57.3408 126.095 57.0262C125.779 56.711 125.622 56.3015 125.622 55.7659V53.1513C125.622 52.6476 125.779 52.2062 126.095 51.8917C126.41 51.5765 126.819 51.4192 127.323 51.4192C127.827 51.4192 128.268 51.5765 128.583 51.8917C128.898 52.2062 129.056 52.6157 129.056 53.1513V55.7659C129.056 56.3015 128.898 56.711 128.583 57.0262ZM126.031 57.8133C126.41 58.0024 126.819 58.0973 127.323 58.0973C127.795 58.0973 128.237 58.0024 128.614 57.8133C128.993 57.6248 129.276 57.3408 129.465 56.9631C129.654 56.6167 129.78 56.1754 129.78 55.7029V53.1201C129.78 52.6475 129.685 52.2381 129.465 51.8598C129.276 51.5134 128.993 51.23 128.614 51.0097C128.237 50.8206 127.827 50.7257 127.323 50.7257C126.85 50.7257 126.41 50.8206 126.031 51.0097C125.654 51.1982 125.37 51.4822 125.181 51.8598C124.992 52.2062 124.866 52.6475 124.866 53.1201V55.7029C124.866 56.1754 124.96 56.5849 125.181 56.9631C125.402 57.3408 125.685 57.6248 126.031 57.8133ZM133.529 51.5453C133.529 51.5134 133.56 51.4822 133.592 51.4822H135.482C135.891 51.4822 136.206 51.6083 136.458 51.8598C136.71 52.112 136.836 52.4272 136.836 52.8367C136.836 53.2461 136.71 53.5607 136.458 53.7817C136.206 54.0332 135.891 54.1593 135.482 54.1593H133.592C133.56 54.1593 133.529 54.1281 133.529 54.0963V51.5453ZM136.868 57.9393C136.899 58.0024 136.962 58.0342 137.025 58.0342H137.498C137.592 58.0342 137.624 58.0024 137.624 57.9393C137.624 57.9393 137.624 57.9081 137.592 57.8763L136.08 54.7267C136.08 54.6949 136.08 54.6637 136.111 54.6637C136.553 54.5688 136.899 54.3484 137.151 54.002C137.403 53.6556 137.529 53.2773 137.529 52.7736C137.529 52.1751 137.34 51.7025 136.993 51.3561C136.616 51.0097 136.143 50.8206 135.576 50.8206H132.962C132.867 50.8206 132.836 50.8518 132.836 50.9467V57.8451C132.836 57.9393 132.867 57.9712 132.962 57.9712H133.434C133.529 57.9712 133.56 57.9393 133.56 57.8451V54.7267C133.56 54.6949 133.592 54.6637 133.623 54.6637H135.324C135.355 54.6637 135.355 54.6637 135.387 54.6949L136.868 57.9393ZM144.837 51.0097C144.837 50.9148 144.806 50.8836 144.711 50.8836H140.017C139.923 50.8836 139.891 50.9148 139.891 51.0097V51.3873C139.891 51.4822 139.923 51.5134 140.017 51.5134H141.908C141.939 51.5134 141.971 51.5453 141.971 51.5765V57.9081C141.971 58.0024 142.002 58.0342 142.097 58.0342H142.569C142.663 58.0342 142.695 58.0024 142.695 57.9081V51.5765C142.695 51.5453 142.726 51.5134 142.758 51.5134H144.711C144.806 51.5134 144.837 51.4822 144.837 51.3873V51.0097ZM148.113 56.0493C148.082 56.0493 148.05 56.0181 148.082 55.9863L149.405 51.7968C149.405 51.7656 149.436 51.7656 149.436 51.7656C149.436 51.7656 149.468 51.7656 149.468 51.7968L150.791 55.9863C150.791 56.0181 150.791 56.0493 150.759 56.0493H148.113ZM151.389 57.9393C151.421 58.0024 151.452 58.0654 151.547 58.0654H152.05C152.082 58.0654 152.113 58.0654 152.145 58.0342C152.177 58.0024 152.176 58.0024 152.176 57.9712C152.176 57.9393 152.176 57.9393 152.176 57.9081L149.909 51.0097C149.877 50.9467 149.846 50.8836 149.751 50.8836H149.089C149.027 50.8836 148.964 50.9148 148.932 51.0097L146.664 57.9081C146.664 57.9712 146.664 58.0024 146.664 58.0342C146.696 58.0654 146.727 58.0654 146.759 58.0654H147.262C147.325 58.0654 147.388 58.0342 147.42 57.9393L147.83 56.6798C147.83 56.6479 147.861 56.6479 147.893 56.6479H150.948C150.979 56.6479 150.979 56.6479 151.011 56.6798L151.389 57.9393ZM159.075 51.0097C159.075 50.9148 159.044 50.8836 158.949 50.8836H154.256C154.161 50.8836 154.13 50.9148 154.13 51.0097V51.3873C154.13 51.4822 154.161 51.5134 154.256 51.5134H156.146C156.177 51.5134 156.209 51.5453 156.209 51.5765V57.9081C156.209 58.0024 156.24 58.0342 156.335 58.0342H156.807C156.902 58.0342 156.933 58.0024 156.933 57.9081V51.5765C156.933 51.5453 156.965 51.5134 156.996 51.5134H158.949C159.044 51.5134 159.075 51.4822 159.075 51.3873V51.0097ZM161.816 57.9081C161.816 58.0024 161.847 58.0342 161.942 58.0342H162.414C162.509 58.0342 162.54 58.0024 162.54 57.9081V51.0097C162.54 50.9148 162.509 50.8836 162.414 50.8836H161.942C161.847 50.8836 161.816 50.9148 161.816 51.0097V57.9081ZM169.281 57.0262C168.966 57.3408 168.557 57.4987 168.021 57.4987C167.517 57.4987 167.108 57.3408 166.792 57.0262C166.478 56.711 166.32 56.3015 166.32 55.7659V53.1513C166.32 52.6476 166.478 52.2062 166.792 51.8917C167.108 51.5765 167.517 51.4192 168.021 51.4192C168.525 51.4192 168.966 51.5765 169.281 51.8917C169.596 52.2062 169.753 52.6157 169.753 53.1513V55.7659C169.753 56.3015 169.596 56.711 169.281 57.0262ZM166.73 57.8133C167.108 58.0024 167.517 58.0973 168.021 58.0973C168.494 58.0973 168.934 58.0024 169.313 57.8133C169.69 57.6248 169.974 57.3408 170.163 56.9631C170.352 56.6167 170.478 56.1754 170.478 55.7029V53.1201C170.478 52.6475 170.384 52.2381 170.163 51.8598C169.974 51.5134 169.69 51.23 169.313 51.0097C168.934 50.8206 168.525 50.7257 168.021 50.7257C167.549 50.7257 167.108 50.8206 166.73 51.0097C166.352 51.1982 166.068 51.4822 165.879 51.8598C165.69 52.2062 165.564 52.6475 165.564 53.1201V55.7029C165.564 56.1754 165.659 56.5849 165.879 56.9631C166.099 57.3408 166.383 57.6248 166.73 57.8133ZM173.502 57.9081C173.502 58.0024 173.533 58.0342 173.628 58.0342H174.101C174.195 58.0342 174.227 58.0024 174.227 57.9081V52.3642C174.227 52.3323 174.227 52.3323 174.258 52.3323C174.258 52.3323 174.289 52.3323 174.289 52.3642L177.755 57.9712C177.786 58.0342 177.849 58.0654 177.912 58.0654H178.385C178.479 58.0654 178.511 58.0342 178.511 57.9393V51.0409C178.511 50.9467 178.479 50.9148 178.385 50.9148H177.912C177.818 50.9148 177.786 50.9467 177.786 51.0409V56.5537C177.786 56.5849 177.786 56.5849 177.755 56.5849C177.755 56.5849 177.723 56.5849 177.723 56.5537L174.258 50.9467C174.227 50.8836 174.164 50.8518 174.101 50.8518H173.628C173.533 50.8518 173.502 50.8836 173.502 50.9779V57.9081ZM184.905 4.86222V3.44471H185.503C185.661 3.44471 185.787 3.44471 185.913 3.4759C186.039 3.50775 186.102 3.53895 186.165 3.60199C186.228 3.66503 186.291 3.72808 186.323 3.82232C186.354 3.91721 186.354 4.01145 186.354 4.13754C186.354 4.38971 186.291 4.547 186.134 4.67309C186.008 4.79918 185.756 4.86222 185.409 4.86222H184.905ZM184.181 2.87731V7.03561H184.905V5.39777H185.283C185.378 5.39777 185.409 5.39777 185.472 5.42896C185.503 5.46016 185.535 5.49201 185.566 5.52321L186.511 6.94072C186.574 7.00376 186.637 7.06681 186.732 7.06681H187.425L186.354 5.49201C186.323 5.42896 186.291 5.36592 186.26 5.33472C186.228 5.30288 186.165 5.23983 186.134 5.20864C186.448 5.14559 186.701 4.98766 186.89 4.79918C187.047 4.5782 187.142 4.35787 187.142 4.04265C187.142 3.66504 187.016 3.38166 186.764 3.19253C186.511 3.0034 186.102 2.90916 185.566 2.90916H184.181V2.87731ZM185.566 7.98062C185.283 7.98062 185.031 7.94877 184.779 7.88573C184.527 7.82269 184.307 7.72844 184.086 7.60235C183.865 7.47627 183.676 7.31898 183.488 7.12985C183.299 6.94072 183.173 6.75223 183.015 6.53126C182.889 6.31093 182.794 6.05875 182.731 5.80723C182.668 5.55505 182.637 5.27168 182.637 5.0195C182.637 4.73613 182.668 4.48395 182.731 4.20058C182.794 3.94841 182.889 3.69623 183.015 3.4759C183.141 3.25557 183.299 3.03525 183.488 2.87731C183.676 2.68818 183.865 2.53089 184.086 2.4048C184.307 2.27872 184.527 2.18448 184.779 2.09023C185.031 2.02719 185.283 1.99535 185.566 1.99535C185.976 1.99535 186.354 2.05839 186.732 2.21567C187.079 2.37361 187.393 2.59394 187.677 2.84611C187.929 3.12949 188.15 3.44471 188.307 3.79112C188.464 4.16874 188.527 4.547 188.527 4.95646C188.527 5.23983 188.496 5.49201 188.433 5.74418C188.37 5.99571 188.275 6.24788 188.15 6.46821C188.024 6.68919 187.866 6.87768 187.677 7.06681C187.488 7.25594 187.299 7.41322 187.079 7.53931C186.858 7.6654 186.637 7.75964 186.386 7.82269C186.102 7.94877 185.85 7.98062 185.566 7.98062ZM185.566 1.55469C185.252 1.55469 184.937 1.58588 184.653 1.68078C184.37 1.77502 184.086 1.86926 183.834 2.02719C183.582 2.18447 183.362 2.34176 183.141 2.56274C182.92 2.78307 182.763 3.0034 182.606 3.25558C182.448 3.50775 182.354 3.79112 182.259 4.07449C182.165 4.35787 182.133 4.67308 182.133 4.98765C182.133 5.30287 182.165 5.6181 182.259 5.90147C182.354 6.18484 182.448 6.46821 182.606 6.72039C182.763 6.97256 182.92 7.19289 183.141 7.41322C183.362 7.6342 183.582 7.79148 183.834 7.94877C184.086 8.1067 184.37 8.20095 184.653 8.29519C184.937 8.39008 185.252 8.42128 185.566 8.42128C185.882 8.42128 186.197 8.39008 186.48 8.29519C186.764 8.20095 187.047 8.1067 187.299 7.94877C187.551 7.79148 187.772 7.6342 187.992 7.41322C188.213 7.19289 188.37 6.97256 188.527 6.72039C188.685 6.46821 188.78 6.18484 188.874 5.90147C188.969 5.6181 189 5.30287 189 4.98765C189 4.67308 188.969 4.35787 188.874 4.07449C188.78 3.79112 188.685 3.50775 188.527 3.25558C188.37 3.0034 188.213 2.78307 187.992 2.56274C187.772 2.34176 187.551 2.18447 187.299 2.02719C187.047 1.86926 186.764 1.77502 186.48 1.68078C186.197 1.61773 185.882 1.55469 185.566 1.55469Z" fill="white"/>
</svg>
