<svg width="31" height="23" viewBox="0 0 31 23" fill="none" xmlns="http://www.w3.org/2000/svg">
<path d="M28.8337 10.17H5.3857L12.443 3.1127C12.5704 2.9897 12.672 2.84257 12.7418 2.6799C12.8117 2.51723 12.8485 2.34227 12.85 2.16523C12.8516 1.98819 12.8178 1.81262 12.7508 1.64876C12.6838 1.4849 12.5848 1.33603 12.4596 1.21084C12.3344 1.08565 12.1855 0.986642 12.0216 0.919601C11.8578 0.85256 11.6822 0.818824 11.5052 0.820363C11.3281 0.821901 11.1532 0.858683 10.9905 0.928562C10.8278 0.99844 10.6807 1.10002 10.5577 1.22736L1.22437 10.5607C0.974405 10.8107 0.833984 11.1498 0.833984 11.5034C0.833984 11.8569 0.974405 12.196 1.22437 12.446L10.5577 21.7794C10.8092 22.0222 11.146 22.1566 11.4956 22.1536C11.8452 22.1506 12.1796 22.0103 12.4268 21.7631C12.674 21.5159 12.8142 21.1815 12.8173 20.8319C12.8203 20.4823 12.6859 20.1455 12.443 19.894L5.3857 12.8367H28.8337C29.1873 12.8367 29.5265 12.6962 29.7765 12.4462C30.0266 12.1961 30.167 11.857 30.167 11.5034C30.167 11.1497 30.0266 10.8106 29.7765 10.5606C29.5265 10.3105 29.1873 10.17 28.8337 10.17Z" fill="black"/>
</svg>
