<svg width="68" height="66" viewBox="0 0 68 66" fill="none" xmlns="http://www.w3.org/2000/svg">
<path d="M10.7894 61.9044L0.960568 13.3457C0.82974 12.7431 0.820391 12.1205 0.933066 11.5142C1.04574 10.908 1.27818 10.3303 1.61679 9.81494C1.95539 9.29959 2.39336 8.85695 2.90508 8.51289C3.4168 8.16883 3.99199 7.93027 4.59701 7.81116L35.7653 1.24082C36.9798 0.972523 38.2511 1.19098 39.3064 1.84932C40.3616 2.50765 41.1168 3.55341 41.4098 4.76218L52.4205 52.7986C52.5535 53.4014 52.5648 54.0246 52.4539 54.6317C52.343 55.2389 52.1119 55.8178 51.7744 56.3346C51.4368 56.8513 50.9995 57.2954 50.4881 57.641C49.9767 57.9866 49.4014 58.2266 48.7961 58.3469L17.413 65.0306C14.8519 65.5751 11.3563 64.4071 10.7963 61.9061" fill="#E8E8F2"/>
<path d="M47.2289 42.3838C46.5632 43.8226 45.5469 45.0712 44.2732 46.015C42.9994 46.9589 41.5091 47.5679 39.9388 47.786C37.8587 48.2498 37.8415 48.3872 38.2022 50.4932C38.42 51.8084 38.5462 53.1371 38.5801 54.4697C38.6093 55.4179 38.1816 55.9573 37.0616 56.1394C30.6236 57.1838 24.2044 58.3364 17.7766 59.4477C17.3961 59.468 17.0173 59.5139 16.6429 59.5852C15.5917 59.9287 15.2086 59.5079 15.0025 58.4772C13.7193 52.0288 12.3743 45.5942 11.0517 39.1493C9.28585 30.5108 7.58186 21.8603 5.7164 13.2441C5.3385 11.5023 6.4138 11.7273 7.31905 11.492C7.41294 11.4184 7.52407 11.37 7.6419 11.3514C7.75974 11.3327 7.88038 11.3445 7.9924 11.3855C8.07657 11.4285 8.18994 11.4645 8.22601 11.5401C9.30475 13.8264 11.1462 13.8659 13.2813 13.3867C15.7377 12.8336 18.2318 12.4488 20.7054 11.9781C21.334 11.8596 22.0143 11.5693 22.5777 12.1808C22.801 12.8679 22.3235 13.2561 21.949 13.6735C19.2334 16.7589 17.6486 20.6765 17.4554 24.7821C17.4577 24.878 17.4531 24.9738 17.4417 25.069C17.3747 25.9107 17.2527 26.8915 16.2289 26.8898C15.0952 26.8898 15.2584 25.8111 15.1777 25.026C15.1916 24.8463 15.1771 24.6654 15.1347 24.4901C15.0193 25.717 14.584 26.8921 13.8722 27.8981C14.2553 27.4532 14.5387 26.7524 15.3014 27.0873C16.1602 27.4618 17.3884 27.2814 17.6255 28.6333C17.8813 30.0499 18.2659 31.4402 18.7746 32.7868C19.1182 33.7367 18.4586 34.4289 18.1854 35.226C19.6936 34.9442 19.3758 36.2051 19.6197 36.9214C19.91 37.7802 19.6197 38.7215 19.9118 39.79C21.5488 38.1014 22.9487 39.2145 24.1391 40.1335C26.1412 41.7038 28.3844 42.9394 30.7816 43.7923C32.1317 44.263 32.1369 44.6168 31.1526 45.6423C30.6043 46.3223 29.8261 46.7782 28.9648 46.9241C28.1035 47.07 27.2186 46.8957 26.4769 46.4342C26.1762 46.2312 25.8106 46.1478 25.4516 46.2002C25.0926 46.2526 24.766 46.4371 24.5359 46.7176C24.0876 47.1917 23.5774 47.4889 22.9075 46.9598C21.0042 45.4551 20.6246 45.5049 19.0855 47.3119C18.8633 47.5998 18.6844 47.9187 18.5548 48.2584C20.3343 45.4018 21.6742 45.4018 23.4177 48.0265C23.9055 48.0025 23.933 47.5284 24.1511 47.2467C24.2705 47.0366 24.43 46.8522 24.6207 46.704C24.8115 46.5557 25.0295 46.4466 25.2625 46.3827C25.4955 46.3189 25.7387 46.3017 25.9784 46.332C26.218 46.3624 26.4493 46.4397 26.659 46.5596C27.3476 47.0123 28.184 47.1826 28.9947 47.0352C29.8055 46.8877 30.5284 46.4339 31.0135 45.7677C31.4187 45.2695 31.9467 44.8855 32.5455 44.6535C33.1443 44.4216 33.7933 44.3497 34.4283 44.445C38.3128 44.8531 42.2302 44.0828 45.6709 42.2343C46.1416 41.9784 46.8012 41.4596 47.2272 42.3889" fill="#FEFEFE"/>
<path d="M47.2274 42.3735C46.8117 41.9372 46.4321 42.2395 46.0713 42.4508C42.318 44.541 37.9945 45.3758 33.7328 44.8333C33.3407 44.7585 32.9355 44.7961 32.5638 44.9417C32.1921 45.0872 31.8691 45.3349 31.6321 45.6561C31.3736 46.0911 31.0293 46.4688 30.62 46.7662C30.2106 47.0636 29.745 47.2745 29.2515 47.3859C28.7579 47.4973 28.2469 47.5069 27.7495 47.4142C27.2521 47.3214 26.7788 47.1283 26.3586 46.8465C25.1287 46.1714 24.5464 47.0852 24.1513 48.1262C24.0208 48.4697 23.9796 48.985 23.5278 49.0057C23.076 49.0263 23.052 48.48 22.8407 48.1777C22.4971 47.6813 22.5951 46.9547 21.9148 46.6317C20.9134 46.1491 19.814 46.6214 19.1665 47.92C18.949 48.414 18.7563 48.9185 18.5893 49.4317C17.9125 48.2103 18.4673 46.8018 20.0442 45.7849C20.2463 45.6094 20.4848 45.4809 20.7426 45.4085C21.0003 45.3362 21.2709 45.3218 21.5348 45.3665C21.7987 45.4112 22.0495 45.5137 22.269 45.6669C22.4886 45.82 22.6715 46.0199 22.8046 46.2521C23.3801 47.1952 23.7373 47.0698 24.3248 46.338C24.9947 45.5032 25.8072 45.7196 26.6661 46.0786C27.0325 46.3156 27.442 46.478 27.8712 46.5565C28.3005 46.6349 28.741 46.6279 29.1675 46.5358C29.594 46.4438 29.9982 46.2684 30.3568 46.0199C30.7155 45.7714 31.0216 45.4545 31.2576 45.0875C31.7506 44.5722 31.5634 44.4416 30.9862 44.2681C28.2221 43.4593 25.673 42.0445 23.5243 40.1267C23.1945 39.8312 22.906 39.4911 22.2172 39.9549C21.3892 40.5183 21.8736 39.3056 21.4613 39.0789C21.2123 39.0462 21.0903 39.2678 20.946 39.4465C20.6025 39.8587 20.4616 40.6764 19.7333 40.4084C19.1562 40.1954 19.34 39.4894 19.3417 38.9844C19.3927 37.7403 19.2181 36.4972 18.8263 35.3153C18.1667 35.6485 18.8762 36.2429 18.4828 36.571C18.1329 36.2986 17.904 35.8996 17.8455 35.46C17.787 35.0205 17.9036 34.5755 18.1702 34.2211C18.3504 34.0096 18.461 33.7476 18.4868 33.4709C18.5126 33.1943 18.4524 32.9164 18.3145 32.6751C17.849 31.521 17.5159 30.3178 17.3216 29.0885C17.2203 28.3911 16.863 28.1833 16.1535 27.8054C14.7244 27.0444 14.4169 27.8329 13.8449 28.6453C13.7109 28.8343 13.4842 29.061 13.2471 28.9185C12.9276 28.7261 13.0548 28.4134 13.2351 28.1781C14.2602 26.8943 14.8008 25.2908 14.7622 23.6485C14.7622 23.4028 14.8464 23.1331 15.1521 23.1898C15.2372 23.2232 15.3129 23.2768 15.3727 23.3459C15.4326 23.415 15.4748 23.4976 15.4957 23.5866C15.5644 24.2033 15.5472 24.8285 15.6125 25.4452C15.664 25.9279 15.4939 26.6888 16.2618 26.6373C16.8269 26.5978 16.9987 25.9743 17.0244 25.4057C17.0554 24.7375 17.0794 24.0659 17.167 23.4045C17.6591 19.2367 19.5418 15.3565 22.5109 12.3904C22.7107 11.6946 23.1484 11.0909 23.7477 10.6847C27.072 7.82475 31.3009 6.23299 35.6859 6.19111C36.3086 6.14693 36.9295 6.29826 37.4621 6.62398C41.7574 6.78729 45.8709 8.39992 49.1328 11.1993C52.3948 13.9986 54.6129 17.8198 55.4261 22.0407C56.0795 24.9958 55.9851 28.0673 55.1516 30.9768C54.318 33.8863 52.7716 36.5418 50.6525 38.7027C50.12 39.2712 49.7232 39.7677 50.108 40.5527C48.8678 40.6008 48.203 41.6503 47.248 42.1948C47.2455 42.2527 47.2374 42.3102 47.2239 42.3666" fill="#C2C4D0"/>
<path d="M37.466 6.62316C34.7051 6.43556 31.9367 6.85455 29.355 7.85073C26.7733 8.8469 24.4409 10.3961 22.5217 12.3896C22.2657 12.0564 21.9583 12.1732 21.6164 12.2384C18.6705 12.7967 15.7212 13.3292 12.7718 13.872C9.6232 14.4526 9.33634 14.3152 7.82645 11.4998C7.51726 10.6856 8.68532 10.3129 8.42079 9.51411C8.8945 9.38838 9.30601 9.09402 9.57802 8.68631C9.85004 8.27861 9.96383 7.78562 9.89804 7.29995C10.0196 6.35745 10.414 5.47102 11.0325 4.7496C11.6511 4.02818 12.467 3.50321 13.3799 3.23922C18.5549 2.26469 23.7361 1.30792 28.9237 0.368887C31.2735 -0.0536762 32.5618 0.842982 33.0823 3.35431C33.2541 4.15134 33.5358 4.38495 34.2847 4.35747C35.0031 4.262 35.731 4.44283 36.3212 4.8634C36.9114 5.28398 37.32 5.91294 37.4643 6.62316" fill="#D4D4DE"/>
<path d="M52.5261 54.3643C52.5999 56.8172 50.9801 58.6294 47.9947 59.2615C43.5664 60.1977 39.1105 60.9999 34.6616 61.8381C28.7131 62.953 22.7543 64.0059 16.8143 65.1585C16.006 65.3991 15.154 65.4557 14.3209 65.3244C13.4878 65.193 12.6946 64.877 11.9994 64.3994C11.3042 63.9218 10.7247 63.2947 10.3033 62.5642C9.88186 61.8336 9.62919 61.018 9.56379 60.1771C8.31843 53.2357 6.98718 46.3115 5.66796 39.3822C4.02065 30.6767 2.3493 21.9764 0.715733 13.2692C0.57612 12.1537 0.828826 11.0244 1.43054 10.0748C2.03225 9.12526 2.94551 8.41453 4.01378 8.06445C0.621257 10.9691 1.90612 14.2483 2.46782 17.3574C3.91416 25.4205 5.47901 33.4663 7.00608 41.5173C8.15696 47.605 9.29067 53.6944 10.4828 59.7734C11.1166 63.0045 13.5747 64.535 17.3245 63.8616C26.0455 62.2951 34.7475 60.6186 43.4581 58.9833C44.3829 58.7548 45.3193 58.5759 46.2632 58.4473C47.595 58.4635 48.9017 58.0842 50.0177 57.3574C51.1338 56.6305 52.0092 55.5889 52.5329 54.3643" fill="#C9C8CD"/>
<path d="M50.3446 40.9033C51.2008 42.1343 52.4252 43.0622 53.8419 43.5538C55.3586 44.0502 56.1179 45.7989 57.1743 47.0219C60.1992 50.5226 63.1348 54.1007 66.1494 57.6117C67.4137 59.0838 67.7229 60.4529 66.8657 61.6072C66.2353 62.4557 65.5946 62.7134 64.8044 61.7532C63.0867 59.6524 61.3192 57.5791 59.5791 55.4903C56.6784 52.0091 53.7789 48.5266 50.8805 45.0431C50.7654 44.9039 50.537 44.6875 50.4511 44.7218C48.632 45.3986 48.7436 43.4129 47.8384 42.8461C48.5235 42.0242 49.3793 41.3613 50.3463 40.9033" fill="#C3C4D0"/>
<path d="M63.7364 62.6302C62.1527 62.3777 61.6236 60.9125 60.7836 59.954C57.2829 55.9276 53.8955 51.7999 50.4686 47.7082C50.2715 47.5013 50.0933 47.2771 49.9361 47.0383C49.846 46.9232 49.8016 46.7789 49.8114 46.633C49.8212 46.4872 49.8846 46.3501 49.9894 46.2482C50.29 46.0249 50.5202 46.3169 50.6954 46.5281C53.1678 49.4929 55.6356 52.4606 58.0988 55.4312C59.8028 57.4833 61.5051 59.5371 63.2056 61.5927C63.4324 61.8675 63.8515 62.0393 63.7347 62.6233" fill="#C9CBD6"/>
<path d="M50.3449 40.908C49.7665 41.8331 48.8773 42.5219 47.837 42.8507L47.2529 42.2152C48.0139 40.7276 49.1528 40.0731 50.113 40.573L50.3449 40.9165" fill="#999A9A"/>
<path d="M8.4145 9.52711C8.80786 10.1661 8.7924 10.2142 7.82017 11.5128L7.32546 11.4956C7.15368 10.5406 7.99881 10.1524 8.4145 9.52539" fill="#A3A5AD"/>
<path d="M46.3626 37.9805C43.9896 39.9095 41.1075 41.1078 38.0663 41.4298C35.0252 41.7519 31.956 41.1837 29.2316 39.7944C27.9794 39.2361 27.4486 38.592 28.4621 37.3054C28.8716 37.9232 29.3173 38.5163 29.7968 39.0815C29.9671 39.3176 30.1958 39.5055 30.4605 39.6267C30.7252 39.748 31.0168 39.7986 31.3069 39.7735C31.5969 39.7484 31.8755 39.6485 32.1154 39.4836C32.3553 39.3186 32.5484 39.0943 32.6757 38.8325C33.1986 38.0275 33.5582 37.1275 33.7338 36.1837C33.8729 35.519 34.177 35.2699 34.5927 36.0119C35.3519 37.3552 36.3104 37.2298 37.4836 36.5685C38.5641 35.9621 39.7339 35.5155 40.859 34.983C41.3314 34.7597 41.9497 34.5347 41.6285 33.8545C41.3417 33.2464 40.7971 33.3666 40.2715 33.6329C39.3336 34.107 38.3494 34.4918 37.4424 35.0208C36.2949 35.6839 35.6559 35.1926 35.1784 34.1826C34.974 33.7514 34.8125 33.2996 34.6287 32.8582C34.402 32.3154 34.4003 31.4153 33.5981 31.5527C32.7959 31.6901 32.911 32.5576 32.8526 33.2241C32.7491 34.4621 32.4965 35.6831 32.1002 36.8605C31.9405 37.3466 31.7979 37.9925 31.2568 38.1265C30.5852 38.2983 30.4753 37.5321 30.1884 37.1491C29.2123 35.5616 28.5151 33.8187 28.1271 31.9959C27.9279 31.3638 27.9553 30.1562 27.0862 30.4671C26.6531 30.5884 26.2635 30.8306 25.963 31.1652C25.6624 31.4998 25.4634 31.913 25.3891 32.3566C25.3221 33.3065 25.1932 34.2461 25.0988 35.2012C25.0661 35.5327 25.1125 35.9432 24.7294 36.06C24.4306 36.1494 24.2141 35.8385 24.0424 35.6186C22.3704 33.5923 21.2561 31.1647 20.8096 28.5759C21.2459 28.3148 21.3781 28.6841 21.5482 28.849C22.4706 29.7336 23.2659 29.4794 23.9839 28.5965C24.84 27.3859 25.5104 26.0543 25.9731 24.6457C26.6988 22.6433 27.572 20.6975 28.5858 18.8243C29.0032 20.6451 29.3605 22.1292 29.6765 23.6236C29.8157 24.2764 29.7899 25.1164 30.5594 25.2692C31.475 25.4513 31.4046 24.4567 31.7618 23.9534C32.0031 23.5996 32.1514 23.1906 32.1931 22.7644C32.2349 22.3381 32.1686 21.9082 32.0006 21.5143C31.9456 21.3425 31.8477 21.0299 31.7636 21.0281C29.8741 20.9697 30.4907 19.2967 30.0458 18.3433C29.6525 17.5171 29.8363 16.1103 28.7781 15.9986C27.5998 15.8835 27.6496 17.3196 27.2889 18.1355C26.0865 20.8444 24.9579 23.5841 23.7675 26.2964C23.5476 26.798 23.3175 27.5263 22.6888 27.4834C22.0601 27.4404 22.0017 26.6606 21.7646 26.1522C19.8751 22.2014 21.6049 18.9119 24.0269 16.0536C25.9716 13.5604 28.6267 11.7156 31.6417 10.7628C34.6566 9.80993 37.8896 9.79382 40.9139 10.7166C41.1184 11.0378 41.4636 11.3212 41.4911 11.694C41.6158 12.5428 41.9478 13.3479 42.4577 14.0379C42.9677 14.7279 43.6398 15.2816 44.4147 15.6499C45.93 16.7296 47.1804 18.1392 48.0717 19.7725C48.3814 20.2579 48.5905 20.8006 48.6867 21.3683C48.7606 21.6488 48.7419 21.9458 48.6332 22.2148C48.5246 22.4838 48.3318 22.7105 48.0838 22.861C47.8085 23.0158 47.487 23.0673 47.1772 23.0062C46.8673 22.9451 46.5894 22.7755 46.3935 22.5277C45.8803 21.8979 45.4206 21.2262 45.0193 20.5197C44.5332 19.7004 43.8743 18.997 43.0886 18.4584C43.1856 19.8971 43.4238 21.3228 43.7997 22.715C44.7159 27.1582 45.6171 31.6054 46.5035 36.0566C46.6312 36.3666 46.6841 36.7023 46.6578 37.0366C46.6316 37.3709 46.5269 37.6942 46.3523 37.9805" fill="#EDEDF7"/>
<path d="M46.3635 37.9727C45.6295 34.1937 44.8949 30.4147 44.1597 26.6357C43.6444 24.0213 43.1188 21.4086 42.6 18.7942C42.5313 18.4506 42.1826 18.0161 42.7099 17.8031C43.1016 17.645 43.4176 17.9748 43.7045 18.2342C44.7373 19.231 45.598 20.3919 46.2519 21.6697C46.6298 22.319 47.0472 23.0439 47.8923 22.6247C48.7375 22.2056 48.3922 21.4034 48.0916 20.7352C47.301 18.7625 45.9067 17.0905 44.1082 15.9582C43.141 15.4602 42.3296 14.7054 41.763 13.7767C41.1964 12.848 40.8964 11.7813 40.896 10.6934C43.647 11.4989 46.125 13.0419 48.0617 15.1552C49.9984 17.2685 51.3199 19.8715 51.8829 22.6821C52.446 25.4927 52.2291 28.4039 51.2559 31.1001C50.2827 33.7963 48.5902 36.1748 46.3618 37.9779" fill="#E0DFEE"/>
<path d="M19.9831 36.4775C21.3384 37.4154 21.3573 37.7195 20.0587 39.0438C19.8871 38.199 19.8616 37.331 19.9831 36.4775Z" fill="#EDEDED"/>
<path d="M11.0165 8.04286C10.9787 8.37267 11.0972 8.90173 10.6077 8.77977C10.0288 8.64407 10.1422 8.01538 10.125 7.55675C10.113 7.25786 10.0065 6.69788 10.4548 6.77002C11.1694 6.87137 10.8962 7.59282 11.0165 8.04115" fill="#9799A3"/>
</svg>
