<svg width="33" height="45" viewBox="0 0 33 45" fill="none" xmlns="http://www.w3.org/2000/svg">
<path d="M16.3906 0V44.9995C16.8641 44.9995 17.2806 44.7569 17.5237 44.3896L30.0691 25.4155C31.7811 22.8267 32.7788 19.7242 32.7788 16.3882C32.7788 7.33719 25.4416 0 16.3906 0V0Z" fill="#D86800"/>
<path d="M17.3333 44.3896L27.7995 25.4155C29.2277 22.8267 30.0601 19.7242 30.0601 16.3882C30.0601 7.33719 23.9389 0 16.3882 0C7.33719 0 0 7.33719 0 16.3882C0 19.7242 0.997686 22.8267 2.70966 25.4155L15.2551 44.3896C15.4982 44.757 15.9146 44.9995 16.3882 44.9995C16.7832 44.9995 17.1306 44.7569 17.3333 44.3896Z" fill="#D86800"/>
<path d="M16.8438 4.80469V29.1142C23.5566 29.1142 28.9985 23.6722 28.9985 16.9594C28.9985 10.2466 23.5566 4.80469 16.8438 4.80469Z" fill="white"/>
<path d="M25.9912 16.9594C25.9912 10.2466 21.8986 4.80469 16.85 4.80469C10.1372 4.80469 4.69531 10.2466 4.69531 16.9594C4.69531 23.6722 10.1372 29.1142 16.85 29.1142C21.8986 29.1142 25.9912 23.6722 25.9912 16.9594Z" fill="white"/>
<path d="M22.0106 17.256C22.0106 18.1147 21.872 18.904 21.5946 19.624C21.3226 20.3387 20.936 20.9573 20.4346 21.48C19.9333 21.9973 19.3333 22.4 18.6346 22.688C17.936 22.976 17.16 23.12 16.3066 23.12C15.4586 23.12 14.6826 22.976 13.9786 22.688C13.28 22.4 12.68 21.9973 12.1786 21.48C11.6826 20.9573 11.296 20.3387 11.0186 19.624C10.7413 18.904 10.6026 18.1147 10.6026 17.256C10.6026 16.4027 10.7413 15.616 11.0186 14.896C11.296 14.176 11.6826 13.5573 12.1786 13.04C12.68 12.5173 13.28 12.112 13.9786 11.824C14.6826 11.5307 15.4586 11.384 16.3066 11.384C17.16 11.384 17.936 11.5307 18.6346 11.824C19.3333 12.112 19.9333 12.5173 20.4346 13.04C20.936 13.5573 21.3226 14.176 21.5946 14.896C21.872 15.616 22.0106 16.4027 22.0106 17.256ZM20.2666 17.256C20.2666 16.5733 20.1733 15.96 19.9866 15.416C19.8 14.872 19.5333 14.4107 19.1866 14.032C18.8453 13.6533 18.4293 13.3627 17.9386 13.16C17.4533 12.9573 16.9093 12.856 16.3066 12.856C15.704 12.856 15.1573 12.9573 14.6666 13.16C14.1813 13.3627 13.7653 13.6533 13.4186 14.032C13.072 14.4107 12.8053 14.872 12.6186 15.416C12.432 15.96 12.3386 16.5733 12.3386 17.256C12.3386 17.944 12.432 18.56 12.6186 19.104C12.8053 19.6427 13.072 20.1013 13.4186 20.48C13.7653 20.8587 14.1813 21.1493 14.6666 21.352C15.1573 21.5493 15.704 21.648 16.3066 21.648C16.9093 21.648 17.4533 21.5493 17.9386 21.352C18.4293 21.1493 18.8453 20.8587 19.1866 20.48C19.5333 20.1013 19.8 19.6427 19.9866 19.104C20.1733 18.56 20.2666 17.944 20.2666 17.256Z" fill="black"/>
</svg>
