<svg width="42" height="55" viewBox="0 0 42 55" fill="none" xmlns="http://www.w3.org/2000/svg">
<path d="M29.3839 0.9375H1.91144C1.23639 0.9375 0.628906 1.47752 0.628906 2.22003V53.655C0.628906 54.33 1.16893 54.9375 1.91144 54.9375H40.2514C40.9265 54.9375 41.534 54.3975 41.534 53.655V13.0875C41.534 12.75 41.3989 12.4125 41.1965 12.21L30.2614 1.27503C29.9914 1.07253 29.7214 0.9375 29.3839 0.9375Z" fill="#EBF0F3"/>
<path d="M31.1382 12.5503H41.3982C41.3307 12.4152 41.2632 12.2803 41.1282 12.2127L35.6607 6.74519L30.2606 1.27777C30.1256 1.14273 30.0581 1.07527 29.9231 1.00781V11.2677C29.8556 12.0102 30.4631 12.5503 31.1382 12.5503Z" fill="#D5D6DB"/>
<path d="M9.53893 48.6567C8.59392 48.6567 7.85141 48.1167 7.51388 47.7792C6.36638 46.4292 6.36638 45.2817 6.56888 44.5392C6.70391 43.8641 7.1089 43.2567 7.71638 42.8517C8.59392 42.1766 11.0238 40.4892 14.6014 39.0042C16.4914 35.5617 17.7739 32.7941 18.6513 30.5667C17.1663 27.7317 16.6263 25.4367 16.4914 24.2892C16.3563 23.3442 16.4239 22.3992 16.6939 21.5892C17.3689 19.4293 18.8538 19.3617 19.4613 19.4293C19.5963 19.4293 21.9588 19.7668 22.3638 23.1417C22.3638 23.2767 22.6337 25.4367 20.8113 30.4991C21.9588 32.4566 23.5788 34.6167 26.0764 36.7092C28.4388 36.7092 31.0039 36.9117 33.7039 37.5867C34.3113 37.7218 34.8514 38.0592 35.2563 38.5318C35.9314 39.2743 36.0663 40.2193 35.7288 41.1643C35.7288 41.1643 35.5938 41.6367 35.1888 42.1093C34.4463 43.1217 33.0288 43.4593 31.8813 42.8518C29.3164 41.5018 27.1563 40.0844 25.4013 38.5993C21.8238 38.7344 18.6513 39.5443 16.0863 40.5568C14.9388 42.6493 13.5213 44.9443 11.9013 47.5092C11.5637 47.9817 11.1588 48.3868 10.6187 48.5893C10.1464 48.5892 9.80888 48.6567 9.53893 48.6567ZM12.8464 41.8392C10.8213 42.9193 9.40389 43.8643 8.86387 44.3367C8.66138 44.5392 8.45889 44.7417 8.45889 44.9442C8.32386 45.4166 8.52635 45.8892 8.99891 46.4292C8.99891 46.4292 9.40389 46.7667 9.80888 46.6317C9.94391 46.5642 10.0788 46.4967 10.1464 46.2942C11.0914 44.7417 12.0364 43.2567 12.8464 41.8392ZM28.5738 38.5992C29.7888 39.4092 31.1388 40.2867 32.6238 41.0292C32.8938 41.1643 33.2313 41.0967 33.4338 40.8267C33.6363 40.5568 33.7037 40.3543 33.7037 40.3543C33.8388 40.0168 33.8388 39.8819 33.6363 39.6793C33.5012 39.5442 33.2988 39.4093 33.0288 39.3417C31.5439 38.9367 30.0589 38.7342 28.5738 38.5992ZM19.7988 32.5918C19.1238 34.1443 18.3138 35.8992 17.2339 37.9243C19.0564 37.3843 21.0139 36.9118 23.1739 36.7093C21.8239 35.2917 20.6764 33.8742 19.7988 32.5918ZM19.1239 21.2517C18.8539 21.2517 18.6515 21.5217 18.4488 22.1292C18.2464 22.6693 18.2464 23.2767 18.3138 23.9518C18.4488 24.7618 18.7188 26.1118 19.4613 27.8667C20.4738 24.6267 20.3389 23.2767 20.3389 23.2767C20.1364 21.4542 19.1914 21.2517 19.1239 21.2517Z" fill="#E56353"/>
</svg>
