<svg width="22" height="16" viewBox="0 0 22 16" fill="none" xmlns="http://www.w3.org/2000/svg">
<path d="M20.4156 7.29833H3.77761L8.78527 2.29067C8.87563 2.20339 8.94771 2.099 8.99729 1.98357C9.04687 1.86814 9.07297 1.744 9.07406 1.61838C9.07516 1.49275 9.05122 1.36817 9.00365 1.2519C8.95608 1.13563 8.88583 1.03 8.797 0.941166C8.70816 0.852335 8.60253 0.782085 8.48626 0.734514C8.36999 0.686944 8.24541 0.663007 8.11979 0.664098C7.99417 0.66519 7.87002 0.691289 7.75459 0.740873C7.63917 0.790456 7.53477 0.862532 7.44749 0.952893L0.824854 7.57553C0.64749 7.75295 0.547852 7.99355 0.547852 8.24442C0.547852 8.49529 0.64749 8.73589 0.824854 8.91331L7.44749 15.536C7.62593 15.7083 7.86491 15.8036 8.11298 15.8015C8.36104 15.7993 8.59833 15.6998 8.77374 15.5244C8.94916 15.349 9.04866 15.1117 9.05081 14.8637C9.05297 14.6156 8.95761 14.3766 8.78527 14.1982L3.77761 9.19051H20.4156C20.6665 9.19051 20.9071 9.09084 21.0846 8.91341C21.262 8.73598 21.3617 8.49534 21.3617 8.24442C21.3617 7.9935 21.262 7.75286 21.0846 7.57543C20.9071 7.39801 20.6665 7.29833 20.4156 7.29833Z" fill="white"/>
</svg>
