<svg width="8" height="5" viewBox="0 0 8 5" fill="none" xmlns="http://www.w3.org/2000/svg">
<path d="M0.0750089 4.37707L9.53674e-06 4.37736L0.0750084 4.37696C0.0746198 4.30369 0.0875163 4.23118 0.112834 4.16364C0.138133 4.09615 0.175257 4.03516 0.221795 3.98401C0.221828 3.98398 0.22186 3.98394 0.221893 3.98391L3.66475 0.2327C3.66475 0.232696 3.66475 0.232693 3.66476 0.23269C3.75881 0.130828 3.8846 0.075 4.01422 0.075C4.14383 0.075 4.2696 0.130813 4.36365 0.232648C4.36366 0.232665 4.36368 0.232682 4.36369 0.2327L7.80475 3.98195C7.8863 4.08681 7.92956 4.22224 7.92462 4.3616C7.91964 4.50193 7.86625 4.63393 7.77666 4.73154C7.68724 4.82897 7.56867 4.88479 7.44513 4.88999C7.3225 4.89515 7.2015 4.85018 7.10608 4.76212L4.07235 1.45667L4.01709 1.39647L3.96183 1.45667L0.926068 4.76433L0.925862 4.76456C0.855892 4.84142 0.767382 4.89312 0.671941 4.91425C0.576571 4.93537 0.477527 4.92527 0.387017 4.8849C0.296402 4.84448 0.21777 4.77521 0.16183 4.68481C0.10586 4.59437 0.0754333 4.48726 0.0750089 4.37707Z" fill="#115E67" stroke="white" stroke-width="0.15"/>
</svg>
