<svg width="8" height="5" viewBox="0 0 8 5" fill="none" xmlns="http://www.w3.org/2000/svg">
<path d="M7.92499 0.622932L7.99999 0.622644L7.92499 0.623042C7.92538 0.696314 7.91248 0.768824 7.88717 0.836361C7.86187 0.903846 7.82474 0.964837 7.77821 1.01599C7.77817 1.01602 7.77814 1.01606 7.77811 1.01609L4.33525 4.7673C4.33525 4.7673 4.33525 4.76731 4.33524 4.76731C4.24119 4.86917 4.1154 4.925 3.98578 4.925C3.85617 4.925 3.7304 4.86919 3.63635 4.76735C3.63634 4.76734 3.63632 4.76732 3.63631 4.7673L0.195248 1.01805C0.113699 0.913192 0.0704405 0.777758 0.0753809 0.638398C0.0803555 0.498075 0.133753 0.366066 0.223338 0.268458C0.312761 0.171026 0.431326 0.115208 0.554873 0.110008C0.677499 0.104847 0.798503 0.149818 0.893921 0.237885L3.92765 3.54333L3.98291 3.60353L4.03817 3.54333L7.07393 0.235672L7.07414 0.235445C7.14411 0.158579 7.23262 0.106882 7.32806 0.0857501C7.42343 0.0646343 7.52247 0.0747333 7.61298 0.115103C7.7036 0.155519 7.78223 0.224787 7.83817 0.315186C7.89414 0.405633 7.92457 0.512744 7.92499 0.622932Z" fill="#115E67" stroke="white" stroke-width="0.15"/>
</svg>
