<svg width="44" height="45" viewBox="0 0 44 45" fill="none" xmlns="http://www.w3.org/2000/svg">
<circle cx="22" cy="22.7656" r="22" fill="#F7EDFF"/>
<g clip-path="url(#clip0_1225_4552)">
<path d="M16.5797 29.2385L15.4069 28.0006L14.4385 28.7997L16.538 31.0156L19.9385 27.7285L19.0085 26.8906L16.5797 29.2385Z" fill="#985BCC"/>
<path d="M17.1255 23.1666C17.243 23.1666 17.3595 23.1709 17.4752 23.1784L17.8489 16.781H20.8988V15.5371C20.8988 13.4575 22.5907 11.7656 24.6703 11.7656C26.7498 11.7656 28.4417 13.4575 28.4417 15.5371V16.781H31.4916L32.1691 28.3771C32.2218 29.2801 31.9091 30.1397 31.2885 30.7975C30.6679 31.4554 29.828 31.8178 28.9236 31.8178H21.2273C20.2547 33.0059 18.7772 33.7656 17.1255 33.7656C14.2033 33.7656 11.826 31.3883 11.826 28.4661C11.826 25.544 14.2033 23.1666 17.1255 23.1666ZM27.1527 15.5371C27.1527 14.1683 26.0391 13.0547 24.6703 13.0547C23.3015 13.0547 22.1879 14.1683 22.1879 15.5371V16.781H27.1527V15.5371ZM28.9236 30.5287C29.4694 30.5287 29.9762 30.31 30.3508 29.913C30.7253 29.516 30.914 28.9972 30.8822 28.4523L30.2757 18.0701H28.4417V19.6852H27.1527V18.0701H22.1879V19.6852H20.8988V18.0701H19.0649L18.7522 23.4224C20.8809 24.1106 22.425 26.1113 22.425 28.4662C22.425 29.1974 22.2761 29.8945 22.0071 30.5287H28.9236V30.5287ZM17.1255 32.4766C19.3368 32.4766 21.1359 30.6775 21.1359 28.4661C21.1359 26.2547 19.3368 24.4557 17.1255 24.4557C14.9141 24.4557 13.1151 26.2547 13.1151 28.4661C13.1151 30.6775 14.9141 32.4766 17.1255 32.4766Z" fill="#985BCC"/>
</g>
<defs>
<clipPath id="clip0_1225_4552">
<rect width="22" height="22" fill="white" transform="matrix(-1 0 0 1 33 11.7656)"/>
</clipPath>
</defs>
</svg>
