<svg width="18" height="19" viewBox="0 0 18 19" fill="none" xmlns="http://www.w3.org/2000/svg">
<path d="M17.7805 16.7512L12.6616 11.6324C13.6532 10.4076 14.2502 8.85136 14.2502 7.15635C14.2502 3.2278 11.0536 0.03125 7.12506 0.03125C3.19651 0.03125 0 3.22776 0 7.15631C0 11.0849 3.19655 14.2814 7.1251 14.2814C8.82011 14.2814 10.3764 13.6844 11.6011 12.6929L16.72 17.8117C16.8662 17.958 17.0582 18.0315 17.2502 18.0315C17.4422 18.0315 17.6342 17.958 17.7805 17.8117C18.0737 17.5185 18.0737 17.0444 17.7805 16.7512ZM7.1251 12.7814C4.02305 12.7814 1.50003 10.2584 1.50003 7.15631C1.50003 4.05426 4.02305 1.53124 7.1251 1.53124C10.2271 1.53124 12.7502 4.05426 12.7502 7.15631C12.7502 10.2584 10.2271 12.7814 7.1251 12.7814Z" fill="#115E68"/>
</svg>
