<svg width="28" height="20" viewBox="0 0 28 20" fill="none" xmlns="http://www.w3.org/2000/svg">
<path d="M2.62502 0H25.375C26.8225 0 28 1.12142 28 2.50001V17.5C28 18.8786 26.8225 20 25.375 20H2.62502C1.1775 20 3.06272e-07 18.8786 3.06272e-07 17.5V2.50001C3.06272e-07 1.12142 1.1775 0 2.62502 0V0ZM2.62502 1.66666C2.50614 1.66666 2.39304 1.69015 2.28964 1.73117L14 11.3973L25.7104 1.73117C25.607 1.6902 25.4939 1.66666 25.375 1.66666H2.62502ZM2.62502 18.3333H25.375C25.8578 18.3333 26.25 17.9598 26.25 17.4999V3.49201L14.5734 13.1299C14.4084 13.2657 14.2042 13.3333 14 13.3333C13.7958 13.3333 13.5916 13.2658 13.4266 13.1299L1.74999 3.49201V17.5C1.75005 17.9598 2.14224 18.3333 2.62502 18.3333V18.3333Z" fill="#5EBB8A"/>
</svg>
