<svg width="44" height="45" viewBox="0 0 44 45" fill="none" xmlns="http://www.w3.org/2000/svg">
<circle cx="22" cy="22.7109" r="22" fill="#E1E2FF"/>
<g clip-path="url(#clip0_1225_4596)">
<path d="M29.0493 18.9489L29.0493 18.9489L32.7467 22.7692C32.845 22.8708 32.9 23.0066 32.9 23.1479V27.6307C32.9 27.9314 32.6562 28.1752 32.3555 28.1752H31.3929H31.3187L31.2972 28.2462C31.179 28.6358 30.9666 29.0027 30.6591 29.3102C30.175 29.7943 29.5319 30.0607 28.8473 30.0607C28.1628 30.0607 27.5196 29.7943 27.0356 29.3102C26.728 29.0027 26.5156 28.6358 26.3975 28.2462L26.3759 28.1752H26.3018H20.1467H20.0725L20.051 28.2462C19.9328 28.6358 19.7204 29.0027 19.4129 29.3102C18.9288 29.7943 18.2857 30.0607 17.6012 30.0607C16.9166 30.0607 16.2735 29.7943 15.7894 29.3102L15.7215 29.3781L15.7894 29.3102C15.4853 29.0061 15.2674 28.6394 15.1472 28.2393L15.1258 28.1681H15.0514H13.6795C13.3788 28.1681 13.135 27.9243 13.135 27.6236V21.7043V21.6043H13.035H11.6445C11.3438 21.6043 11.1 21.3605 11.1 21.0598C11.1 20.7591 11.3438 20.5153 11.6445 20.5153H13.035H13.135V20.4153V19.1256V19.0256H13.035H12.5471C12.2464 19.0256 12.0026 18.7818 12.0026 18.4811C12.0026 18.1803 12.2464 17.9365 12.5471 17.9365H13.035H13.135V17.8365V15.9023C13.135 15.6016 13.3788 15.3578 13.6795 15.3578H25.6508C25.9515 15.3578 26.1953 15.6016 26.1953 15.9023V18.6831V18.7831H26.2953H28.6581C28.8056 18.7831 28.9468 18.8429 29.0493 18.9489ZM30.8347 22.6034H31.0707L30.9066 22.4339L28.4568 19.9026L28.4273 19.8722H28.3849H26.2772H26.1772V19.9722V22.5034V22.6034H26.2772H30.8347ZM14.324 21.6043H14.224V21.7043V26.979V27.079H14.324H14.9893H15.0716L15.0875 26.9983C15.1846 26.5046 15.4253 26.0507 15.7894 25.6865C16.2735 25.2024 16.9166 24.9361 17.6012 24.9361C18.2857 24.9361 18.9288 25.2024 19.4129 25.6865C19.7867 26.0603 20.0204 26.5216 20.1145 27.0051L20.1303 27.086H20.2127H24.9881H25.088L25.0881 26.9862L25.1062 16.547L25.1064 16.4468H25.0062H18.1515H14.324H14.224V16.5468V17.8365V17.9365H14.324H18.1515C18.4522 17.9365 18.696 18.1803 18.696 18.481C18.696 18.7818 18.4522 19.0256 18.1515 19.0256H14.324H14.224V19.1256V20.4152V20.5152H14.324H17.6787C17.9794 20.5152 18.2233 20.759 18.2233 21.0598C18.2233 21.3605 17.9794 21.6043 17.6787 21.6043H14.324ZM18.6428 26.4566L18.5721 26.5274L18.6428 26.4566C18.3647 26.1785 17.9944 26.0252 17.6012 26.0252C17.2079 26.0252 16.8376 26.1785 16.5595 26.4566C16.2814 26.7348 16.128 27.1051 16.128 27.4984C16.128 27.8917 16.2814 28.262 16.5595 28.5401C16.8376 28.8182 17.2079 28.9716 17.6012 28.9716C17.9944 28.9716 18.3647 28.8182 18.6428 28.5401L18.5776 28.4749L18.6428 28.5401C19.2173 27.9656 19.2173 27.0311 18.6428 26.4566ZM27.8056 26.4567L27.8716 26.5227L27.8056 26.4567C27.2311 27.0312 27.2311 27.9656 27.8056 28.5401L27.8763 28.4694L27.8056 28.5401C28.0837 28.8182 28.454 28.9716 28.8472 28.9716C29.2405 28.9716 29.6108 28.8182 29.8889 28.5401C30.167 28.262 30.3204 27.8917 30.3204 27.4984C30.3204 27.1051 30.167 26.7348 29.8889 26.4567C29.6108 26.1786 29.2405 26.0252 28.8472 26.0252C28.454 26.0252 28.0837 26.1786 27.8056 26.4567ZM31.3606 27.0052L31.3764 27.0861H31.4588H31.7109H31.8109V26.9861V23.7925V23.6925H31.7109H26.2772H26.1772V23.7925V26.809L26.3738 26.8347C26.4859 26.4138 26.706 26.0161 27.0355 25.6866C27.5196 25.2025 28.1627 24.9361 28.8472 24.9361C29.5318 24.9361 30.1749 25.2025 30.659 25.6866L30.725 25.6206L30.659 25.6866C31.0328 26.0604 31.2666 26.5217 31.3606 27.0052Z" fill="#252A9E" stroke="#E1E2FF" stroke-width="0.2"/>
</g>
<defs>
<clipPath id="clip0_1225_4596">
<rect width="22" height="22" fill="white" transform="translate(11 11.7109)"/>
</clipPath>
</defs>
</svg>
