<svg width="18" height="24" viewBox="0 0 18 24" fill="none" xmlns="http://www.w3.org/2000/svg">
<path d="M12.9943 7.3303H17.3643C17.3356 7.27279 17.3068 7.21532 17.2494 7.18654L14.9206 4.85777L12.6206 2.52904C12.563 2.47153 12.5343 2.4428 12.4768 2.41406V6.78404C12.4481 7.10029 12.7068 7.3303 12.9943 7.3303Z" fill="#D5D6DB"/>
<path d="M12.2475 0.132812H0.546264C0.258742 0.132812 0 0.362821 0 0.679077V22.5866C0 22.8741 0.230009 23.1329 0.546264 23.1329H16.8763C17.1638 23.1329 17.4226 22.9029 17.4226 22.5866V5.30784C17.4226 5.16408 17.3651 5.02032 17.2788 4.93407L12.6213 0.276574C12.5063 0.190327 12.3913 0.132812 12.2475 0.132812Z" fill="#EBF0F3"/>
<path d="M3.79483 20.4552C3.39233 20.4552 3.07607 20.2252 2.93231 20.0815C2.44356 19.5065 2.44356 19.0177 2.52981 18.7015C2.58732 18.4139 2.75982 18.1552 3.01856 17.9827C3.39233 17.6952 4.4273 16.9765 5.95106 16.344C6.75607 14.8777 7.30233 13.6989 7.67605 12.7502C7.04354 11.5427 6.81353 10.5652 6.75607 10.0765C6.69855 9.67395 6.72733 9.27145 6.84231 8.92646C7.12984 8.00648 7.7623 7.97769 8.02104 8.00647C8.07856 8.00647 9.08479 8.15024 9.25728 9.58771C9.25728 9.64522 9.37226 10.5652 8.59604 12.7214C9.08479 13.5552 9.77477 14.4752 10.8386 15.3665C11.8448 15.3665 12.9373 15.4527 14.0873 15.7402C14.3461 15.7977 14.5761 15.9415 14.7486 16.1427C15.0361 16.459 15.0936 16.8615 14.9498 17.264C14.9498 17.264 14.8923 17.4652 14.7198 17.6665C14.4035 18.0977 13.7998 18.2415 13.311 17.9828C12.2186 17.4078 11.2985 16.804 10.551 16.1715C9.02728 16.229 7.67605 16.574 6.58352 17.0053C6.09477 17.8965 5.49104 18.874 4.80102 19.9665C4.65726 20.1677 4.48476 20.3403 4.25475 20.4265C4.05357 20.4265 3.90981 20.4552 3.79483 20.4552ZM5.20357 17.5515C4.34105 18.0115 3.73732 18.414 3.50731 18.6152C3.42106 18.7015 3.33481 18.7877 3.33481 18.874C3.2773 19.0752 3.36355 19.2765 3.56482 19.5065C3.56482 19.5065 3.73732 19.6502 3.90981 19.5927C3.96733 19.564 4.02479 19.5352 4.05357 19.449C4.45608 18.7877 4.85858 18.1552 5.20357 17.5515ZM11.9023 16.1715C12.4198 16.5165 12.9948 16.8902 13.6273 17.2065C13.7423 17.264 13.886 17.2352 13.9723 17.1202C14.0585 17.0053 14.0873 16.919 14.0873 16.919C14.1448 16.7752 14.1448 16.7178 14.0585 16.6315C14.001 16.574 13.9148 16.5165 13.7998 16.4877C13.1673 16.3152 12.5348 16.229 11.9023 16.1715ZM8.1648 13.6127C7.87728 14.274 7.53229 15.0215 7.07232 15.884C7.84859 15.654 8.68233 15.4528 9.60232 15.3665C9.02732 14.7627 8.53857 14.159 8.1648 13.6127ZM7.87733 8.7827C7.76235 8.7827 7.6761 8.89768 7.58981 9.15647C7.50356 9.38648 7.50356 9.64522 7.53229 9.93274C7.58981 10.2777 7.70479 10.8527 8.02104 11.6002C8.45228 10.2202 8.39481 9.64522 8.39481 9.64522C8.30856 8.86895 7.90606 8.7827 7.87733 8.7827Z" fill="#E56353"/>
</svg>
