<svg width="10" height="7" viewBox="0 0 10 7" fill="none" xmlns="http://www.w3.org/2000/svg">
<path d="M9.99974 1.38978C10.0003 1.49025 9.98234 1.58985 9.94693 1.68287C9.91152 1.77588 9.85935 1.86048 9.79341 1.93181L5.52438 6.51238C5.39108 6.65457 5.21074 6.73438 5.02277 6.73438C4.83481 6.73438 4.65447 6.65457 4.52116 6.51238L0.252141 1.93181C0.135578 1.78577 0.0746687 1.59791 0.0815853 1.40577C0.088502 1.21364 0.162735 1.03138 0.289449 0.895414C0.416164 0.759452 0.586028 0.679801 0.765097 0.67238C0.944165 0.664959 1.11925 0.730313 1.25536 0.855382L5.01922 4.89391L8.78307 0.855382C8.88216 0.748181 9.00866 0.674914 9.14656 0.644846C9.28446 0.614779 9.42757 0.629261 9.5578 0.686461C9.68802 0.743661 9.79952 0.841011 9.87819 0.9662C9.95685 1.09139 9.99915 1.2388 9.99974 1.38978Z" fill="#115E67"/>
</svg>
