<svg width="10" height="7" viewBox="0 0 10 7" fill="none" xmlns="http://www.w3.org/2000/svg">
<path d="M0.0813107 5.97741C0.0807694 5.87693 0.0987168 5.77734 0.134124 5.68432C0.169532 5.59131 0.221704 5.50671 0.287648 5.43537L4.55667 0.854811C4.68998 0.712622 4.87031 0.632813 5.05828 0.632813C5.24625 0.632813 5.42658 0.712622 5.55989 0.854811L9.82891 5.43537C9.94548 5.58142 10.0064 5.76928 9.99947 5.96142C9.99255 6.15355 9.91832 6.33581 9.79161 6.47177C9.66489 6.60774 9.49503 6.68739 9.31596 6.69481C9.13689 6.70223 8.96181 6.63687 8.82569 6.5118L5.06184 2.47328L1.29798 6.5118C1.19889 6.61901 1.0724 6.69227 0.934498 6.72234C0.7966 6.75241 0.653488 6.73793 0.523259 6.68073C0.393031 6.62353 0.281535 6.52618 0.202869 6.40099C0.124203 6.2758 0.0819007 6.12839 0.0813107 5.97741V5.97741Z" fill="#115E67"/>
</svg>
