<svg width="46" height="46" viewBox="0 0 46 46" fill="none" xmlns="http://www.w3.org/2000/svg">
<path d="M23 0C10.304 0 0 10.304 0 23C0 35.696 10.304 46 23 46C35.696 46 46 35.696 46 23C46 10.304 35.696 0 23 0ZM23 36.8C21.3133 36.8 19.9333 35.42 19.9333 33.7333C19.9333 32.0467 21.3133 30.6667 23 30.6667C24.6867 30.6667 26.0667 32.0467 26.0667 33.7333C26.0667 35.42 24.6867 36.8 23 36.8ZM26.5113 13.018L25.484 25.3153C25.3767 26.6033 24.3033 27.6 23 27.6C21.6967 27.6 20.6233 26.6033 20.516 25.3153L19.4887 13.018C19.32 10.9633 20.93 9.2 23 9.2C24.9627 9.2 26.5267 10.7947 26.5267 12.7267C26.5267 12.8187 26.5267 12.926 26.5113 13.018Z" fill="#BC464B"/>
</svg>
